  0
SECTION
  2
BLOCKS
  0
ENDSEC
  0
SECTION
  2
ENTITIES
  0
LINE
  8
0
 10
0.796783
 20
-23.7272
 11
1.03659
 21
-23.3152
  0
LINE
  8
0
 10
1.03659
 20
-23.3152
 11
1.24734
 21
-22.9195
  0
LINE
  8
0
 10
1.24734
 20
-22.9195
 11
1.43065
 21
-22.5415
  0
LINE
  8
0
 10
1.43065
 20
-22.5415
 11
1.58817
 21
-22.1829
  0
LINE
  8
0
 10
1.58817
 20
-22.1829
 11
1.72162
 21
-21.845
  0
LINE
  8
0
 10
1.72162
 20
-21.845
 11
1.83282
 21
-21.5289
  0
LINE
  8
0
 10
1.83282
 20
-21.5289
 11
1.92363
 21
-21.236
  0
LINE
  8
0
 10
1.92363
 20
-21.236
 11
1.99596
 21
-20.9672
  0
LINE
  8
0
 10
1.99596
 20
-20.9672
 11
2.05177
 21
-20.7235
  0
LINE
  8
0
 10
2.05177
 20
-20.7235
 11
2.09308
 21
-20.5057
  0
LINE
  8
0
 10
2.09308
 20
-20.5057
 11
2.12192
 21
-20.3145
  0
LINE
  8
0
 10
2.12192
 20
-20.3145
 11
2.11813
 21
-20.2783
  0
LINE
  8
0
 10
2.11813
 20
-20.2783
 11
3.20244
 21
-20.1355
  0
LINE
  8
0
 10
3.20244
 20
-20.1355
 11
3.20815
 21
-20.1715
  0
LINE
  8
0
 10
3.20815
 20
-20.1715
 11
3.28549
 21
-20.3487
  0
LINE
  8
0
 10
3.28549
 20
-20.3487
 11
3.38176
 21
-20.5484
  0
LINE
  8
0
 10
3.38176
 20
-20.5484
 11
3.49875
 21
-20.7693
  0
LINE
  8
0
 10
3.49875
 20
-20.7693
 11
3.63818
 21
-21.0102
  0
LINE
  8
0
 10
3.63818
 20
-21.0102
 11
3.80171
 21
-21.2697
  0
LINE
  8
0
 10
3.80171
 20
-21.2697
 11
3.99092
 21
-21.5462
  0
LINE
  8
0
 10
3.99092
 20
-21.5462
 11
4.20731
 21
-21.8381
  0
LINE
  8
0
 10
4.20731
 20
-21.8381
 11
4.45227
 21
-22.1437
  0
LINE
  8
0
 10
4.45227
 20
-22.1437
 11
4.72714
 21
-22.4613
  0
LINE
  8
0
 10
4.72714
 20
-22.4613
 11
5.03314
 21
-22.7891
  0
LINE
  8
0
 10
5.03314
 20
-22.7891
 11
5.37141
 21
-23.125
  0
LINE
  8
0
 10
5.37141
 20
-23.125
 11
5.74298
 21
-23.4671
  0
LINE
  8
0
 10
5.74298
 20
-23.4671
 11
6.75996
 21
-23.1946
  0
LINE
  8
0
 10
6.75996
 20
-23.1946
 11
6.91069
 21
-22.7125
  0
LINE
  8
0
 10
6.91069
 20
-22.7125
 11
7.03569
 21
-22.2525
  0
LINE
  8
0
 10
7.03569
 20
-22.2525
 11
7.13683
 21
-21.8157
  0
LINE
  8
0
 10
7.13683
 20
-21.8157
 11
7.21608
 21
-21.4032
  0
LINE
  8
0
 10
7.21608
 20
-21.4032
 11
7.27541
 21
-21.016
  0
LINE
  8
0
 10
7.27541
 20
-21.016
 11
7.31683
 21
-20.655
  0
LINE
  8
0
 10
7.31683
 20
-20.655
 11
7.34245
 21
-20.321
  0
LINE
  8
0
 10
7.34245
 20
-20.321
 11
7.35435
 21
-20.0145
  0
LINE
  8
0
 10
7.35435
 20
-20.0145
 11
7.35464
 21
-19.7361
  0
LINE
  8
0
 10
7.35464
 20
-19.7361
 11
7.34547
 21
-19.4863
  0
LINE
  8
0
 10
7.34547
 20
-19.4863
 11
7.32901
 21
-19.2652
  0
LINE
  8
0
 10
7.32901
 20
-19.2652
 11
7.30739
 21
-19.0731
  0
LINE
  8
0
 10
7.30739
 20
-19.0731
 11
7.29437
 21
-19.0391
  0
LINE
  8
0
 10
7.29437
 20
-19.0391
 11
8.30478
 21
-18.6206
  0
LINE
  8
0
 10
8.30478
 20
-18.6206
 11
8.3196
 21
-18.6538
  0
LINE
  8
0
 10
8.3196
 20
-18.6538
 11
8.44017
 21
-18.805
  0
LINE
  8
0
 10
8.44017
 20
-18.805
 11
8.58484
 21
-18.9729
  0
LINE
  8
0
 10
8.58484
 20
-18.9729
 11
8.75504
 21
-19.1561
  0
LINE
  8
0
 10
8.75504
 20
-19.1561
 11
8.95207
 21
-19.3527
  0
LINE
  8
0
 10
8.95207
 20
-19.3527
 11
9.17717
 21
-19.561
  0
LINE
  8
0
 10
9.17717
 20
-19.561
 11
9.4315
 21
-19.7791
  0
LINE
  8
0
 10
9.4315
 20
-19.7791
 11
9.71606
 21
-20.0051
  0
LINE
  8
0
 10
9.71606
 20
-20.0051
 11
10.0318
 21
-20.2369
  0
LINE
  8
0
 10
10.0318
 20
-20.2369
 11
10.3795
 21
-20.4725
  0
LINE
  8
0
 10
10.3795
 20
-20.4725
 11
10.7599
 21
-20.7099
  0
LINE
  8
0
 10
10.7599
 20
-20.7099
 11
11.1736
 21
-20.9468
  0
LINE
  8
0
 10
11.1736
 20
-20.9468
 11
11.621
 21
-21.181
  0
LINE
  8
0
 10
11.621
 20
-21.181
 11
12.5328
 21
-20.6546
  0
LINE
  8
0
 10
12.5328
 20
-20.6546
 11
12.5536
 21
-20.15
  0
LINE
  8
0
 10
12.5536
 20
-20.15
 11
12.5553
 21
-19.6733
  0
LINE
  8
0
 10
12.5553
 20
-19.6733
 11
12.54
 21
-19.2252
  0
LINE
  8
0
 10
12.54
 20
-19.2252
 11
12.5098
 21
-18.8062
  0
LINE
  8
0
 10
12.5098
 20
-18.8062
 11
12.4668
 21
-18.4169
  0
LINE
  8
0
 10
12.4668
 20
-18.4169
 11
12.4134
 21
-18.0575
  0
LINE
  8
0
 10
12.4134
 20
-18.0575
 11
12.3517
 21
-17.7282
  0
LINE
  8
0
 10
12.3517
 20
-17.7282
 11
12.2839
 21
-17.4291
  0
LINE
  8
0
 10
12.2839
 20
-17.4291
 11
12.2121
 21
-17.1601
  0
LINE
  8
0
 10
12.2121
 20
-17.1601
 11
12.1386
 21
-16.9212
  0
LINE
  8
0
 10
12.1386
 20
-16.9212
 11
12.0655
 21
-16.7119
  0
LINE
  8
0
 10
12.0655
 20
-16.7119
 11
11.9949
 21
-16.5319
  0
LINE
  8
0
 10
11.9949
 20
-16.5319
 11
11.9735
 21
-16.5024
  0
LINE
  8
0
 10
11.9735
 20
-16.5024
 11
12.8412
 21
-15.8367
  0
LINE
  8
0
 10
12.8412
 20
-15.8367
 11
12.8641
 21
-15.8649
  0
LINE
  8
0
 10
12.8641
 20
-15.8649
 11
13.0197
 21
-15.9797
  0
LINE
  8
0
 10
13.0197
 20
-15.9797
 11
13.2029
 21
-16.1045
  0
LINE
  8
0
 10
13.2029
 20
-16.1045
 11
13.4147
 21
-16.2374
  0
LINE
  8
0
 10
13.4147
 20
-16.2374
 11
13.6559
 21
-16.3763
  0
LINE
  8
0
 10
13.6559
 20
-16.3763
 11
13.9272
 21
-16.5192
  0
LINE
  8
0
 10
13.9272
 20
-16.5192
 11
14.2293
 21
-16.6641
  0
LINE
  8
0
 10
14.2293
 20
-16.6641
 11
14.5627
 21
-16.8087
  0
LINE
  8
0
 10
14.5627
 20
-16.8087
 11
14.9277
 21
-16.9509
  0
LINE
  8
0
 10
14.9277
 20
-16.9509
 11
15.3245
 21
-17.0885
  0
LINE
  8
0
 10
15.3245
 20
-17.0885
 11
15.7534
 21
-17.2193
  0
LINE
  8
0
 10
15.7534
 20
-17.2193
 11
16.2143
 21
-17.3411
  0
LINE
  8
0
 10
16.2143
 20
-17.3411
 11
16.7071
 21
-17.4516
  0
LINE
  8
0
 10
16.7071
 20
-17.4516
 11
17.4516
 21
-16.7071
  0
LINE
  8
0
 10
17.4516
 20
-16.7071
 11
17.3411
 21
-16.2143
  0
LINE
  8
0
 10
17.3411
 20
-16.2143
 11
17.2193
 21
-15.7534
  0
LINE
  8
0
 10
17.2193
 20
-15.7534
 11
17.0885
 21
-15.3245
  0
LINE
  8
0
 10
17.0885
 20
-15.3245
 11
16.9509
 21
-14.9277
  0
LINE
  8
0
 10
16.9509
 20
-14.9277
 11
16.8087
 21
-14.5627
  0
LINE
  8
0
 10
16.8087
 20
-14.5627
 11
16.6641
 21
-14.2293
  0
LINE
  8
0
 10
16.6641
 20
-14.2293
 11
16.5192
 21
-13.9272
  0
LINE
  8
0
 10
16.5192
 20
-13.9272
 11
16.3763
 21
-13.6559
  0
LINE
  8
0
 10
16.3763
 20
-13.6559
 11
16.2374
 21
-13.4147
  0
LINE
  8
0
 10
16.2374
 20
-13.4147
 11
16.1045
 21
-13.2029
  0
LINE
  8
0
 10
16.1045
 20
-13.2029
 11
15.9797
 21
-13.0197
  0
LINE
  8
0
 10
15.9797
 20
-13.0197
 11
15.8649
 21
-12.8641
  0
LINE
  8
0
 10
15.8649
 20
-12.8641
 11
15.8367
 21
-12.8412
  0
LINE
  8
0
 10
15.8367
 20
-12.8412
 11
16.5024
 21
-11.9735
  0
LINE
  8
0
 10
16.5024
 20
-11.9735
 11
16.5319
 21
-11.9949
  0
LINE
  8
0
 10
16.5319
 20
-11.9949
 11
16.7119
 21
-12.0655
  0
LINE
  8
0
 10
16.7119
 20
-12.0655
 11
16.9212
 21
-12.1386
  0
LINE
  8
0
 10
16.9212
 20
-12.1386
 11
17.1601
 21
-12.2121
  0
LINE
  8
0
 10
17.1601
 20
-12.2121
 11
17.4291
 21
-12.2839
  0
LINE
  8
0
 10
17.4291
 20
-12.2839
 11
17.7282
 21
-12.3517
  0
LINE
  8
0
 10
17.7282
 20
-12.3517
 11
18.0575
 21
-12.4134
  0
LINE
  8
0
 10
18.0575
 20
-12.4134
 11
18.4169
 21
-12.4668
  0
LINE
  8
0
 10
18.4169
 20
-12.4668
 11
18.8062
 21
-12.5098
  0
LINE
  8
0
 10
18.8062
 20
-12.5098
 11
19.2252
 21
-12.54
  0
LINE
  8
0
 10
19.2252
 20
-12.54
 11
19.6733
 21
-12.5553
  0
LINE
  8
0
 10
19.6733
 20
-12.5553
 11
20.15
 21
-12.5536
  0
LINE
  8
0
 10
20.15
 20
-12.5536
 11
20.6546
 21
-12.5328
  0
LINE
  8
0
 10
20.6546
 20
-12.5328
 11
21.181
 21
-11.621
  0
LINE
  8
0
 10
21.181
 20
-11.621
 11
20.9468
 21
-11.1736
  0
LINE
  8
0
 10
20.9468
 20
-11.1736
 11
20.7099
 21
-10.7599
  0
LINE
  8
0
 10
20.7099
 20
-10.7599
 11
20.4725
 21
-10.3795
  0
LINE
  8
0
 10
20.4725
 20
-10.3795
 11
20.2369
 21
-10.0318
  0
LINE
  8
0
 10
20.2369
 20
-10.0318
 11
20.0051
 21
-9.71606
  0
LINE
  8
0
 10
20.0051
 20
-9.71606
 11
19.7791
 21
-9.4315
  0
LINE
  8
0
 10
19.7791
 20
-9.4315
 11
19.561
 21
-9.17717
  0
LINE
  8
0
 10
19.561
 20
-9.17717
 11
19.3527
 21
-8.95207
  0
LINE
  8
0
 10
19.3527
 20
-8.95207
 11
19.1561
 21
-8.75504
  0
LINE
  8
0
 10
19.1561
 20
-8.75504
 11
18.9729
 21
-8.58484
  0
LINE
  8
0
 10
18.9729
 20
-8.58484
 11
18.805
 21
-8.44017
  0
LINE
  8
0
 10
18.805
 20
-8.44017
 11
18.6538
 21
-8.3196
  0
LINE
  8
0
 10
18.6538
 20
-8.3196
 11
18.6206
 21
-8.30478
  0
LINE
  8
0
 10
18.6206
 20
-8.30478
 11
19.0391
 21
-7.29437
  0
LINE
  8
0
 10
19.0391
 20
-7.29437
 11
19.0731
 21
-7.30739
  0
LINE
  8
0
 10
19.0731
 20
-7.30739
 11
19.2652
 21
-7.32901
  0
LINE
  8
0
 10
19.2652
 20
-7.32901
 11
19.4863
 21
-7.34547
  0
LINE
  8
0
 10
19.4863
 20
-7.34547
 11
19.7361
 21
-7.35464
  0
LINE
  8
0
 10
19.7361
 20
-7.35464
 11
20.0145
 21
-7.35435
  0
LINE
  8
0
 10
20.0145
 20
-7.35435
 11
20.321
 21
-7.34245
  0
LINE
  8
0
 10
20.321
 20
-7.34245
 11
20.655
 21
-7.31683
  0
LINE
  8
0
 10
20.655
 20
-7.31683
 11
21.016
 21
-7.27541
  0
LINE
  8
0
 10
21.016
 20
-7.27541
 11
21.4032
 21
-7.21608
  0
LINE
  8
0
 10
21.4032
 20
-7.21608
 11
21.8157
 21
-7.13683
  0
LINE
  8
0
 10
21.8157
 20
-7.13683
 11
22.2525
 21
-7.03569
  0
LINE
  8
0
 10
22.2525
 20
-7.03569
 11
22.7125
 21
-6.91069
  0
LINE
  8
0
 10
22.7125
 20
-6.91069
 11
23.1946
 21
-6.75996
  0
LINE
  8
0
 10
23.1946
 20
-6.75996
 11
23.4671
 21
-5.74298
  0
LINE
  8
0
 10
23.4671
 20
-5.74298
 11
23.125
 21
-5.37141
  0
LINE
  8
0
 10
23.125
 20
-5.37141
 11
22.7891
 21
-5.03314
  0
LINE
  8
0
 10
22.7891
 20
-5.03314
 11
22.4613
 21
-4.72714
  0
LINE
  8
0
 10
22.4613
 20
-4.72714
 11
22.1437
 21
-4.45227
  0
LINE
  8
0
 10
22.1437
 20
-4.45227
 11
21.8381
 21
-4.20731
  0
LINE
  8
0
 10
21.8381
 20
-4.20731
 11
21.5462
 21
-3.99092
  0
LINE
  8
0
 10
21.5462
 20
-3.99092
 11
21.2697
 21
-3.80171
  0
LINE
  8
0
 10
21.2697
 20
-3.80171
 11
21.0102
 21
-3.63818
  0
LINE
  8
0
 10
21.0102
 20
-3.63818
 11
20.7693
 21
-3.49875
  0
LINE
  8
0
 10
20.7693
 20
-3.49875
 11
20.5484
 21
-3.38176
  0
LINE
  8
0
 10
20.5484
 20
-3.38176
 11
20.3487
 21
-3.28549
  0
LINE
  8
0
 10
20.3487
 20
-3.28549
 11
20.1715
 21
-3.20815
  0
LINE
  8
0
 10
20.1715
 20
-3.20815
 11
20.1355
 21
-3.20244
  0
LINE
  8
0
 10
20.1355
 20
-3.20244
 11
20.2783
 21
-2.11813
  0
LINE
  8
0
 10
20.2783
 20
-2.11813
 11
20.3145
 21
-2.12192
  0
LINE
  8
0
 10
20.3145
 20
-2.12192
 11
20.5057
 21
-2.09308
  0
LINE
  8
0
 10
20.5057
 20
-2.09308
 11
20.7235
 21
-2.05177
  0
LINE
  8
0
 10
20.7235
 20
-2.05177
 11
20.9672
 21
-1.99596
  0
LINE
  8
0
 10
20.9672
 20
-1.99596
 11
21.236
 21
-1.92363
  0
LINE
  8
0
 10
21.236
 20
-1.92363
 11
21.5289
 21
-1.83282
  0
LINE
  8
0
 10
21.5289
 20
-1.83282
 11
21.845
 21
-1.72162
  0
LINE
  8
0
 10
21.845
 20
-1.72162
 11
22.1829
 21
-1.58817
  0
LINE
  8
0
 10
22.1829
 20
-1.58817
 11
22.5415
 21
-1.43065
  0
LINE
  8
0
 10
22.5415
 20
-1.43065
 11
22.9195
 21
-1.24734
  0
LINE
  8
0
 10
22.9195
 20
-1.24734
 11
23.3152
 21
-1.03659
  0
LINE
  8
0
 10
23.3152
 20
-1.03659
 11
23.7272
 21
-0.796783
  0
LINE
  8
0
 10
23.7272
 20
-0.796783
 11
24.1538
 21
-0.526428
  0
LINE
  8
0
 10
24.1538
 20
-0.526428
 11
24.1538
 21
0.526428
  0
LINE
  8
0
 10
24.1538
 20
0.526428
 11
23.7272
 21
0.796783
  0
LINE
  8
0
 10
23.7272
 20
0.796783
 11
23.3152
 21
1.03659
  0
LINE
  8
0
 10
23.3152
 20
1.03659
 11
22.9195
 21
1.24734
  0
LINE
  8
0
 10
22.9195
 20
1.24734
 11
22.5415
 21
1.43065
  0
LINE
  8
0
 10
22.5415
 20
1.43065
 11
22.1829
 21
1.58817
  0
LINE
  8
0
 10
22.1829
 20
1.58817
 11
21.845
 21
1.72162
  0
LINE
  8
0
 10
21.845
 20
1.72162
 11
21.5289
 21
1.83282
  0
LINE
  8
0
 10
21.5289
 20
1.83282
 11
21.236
 21
1.92363
  0
LINE
  8
0
 10
21.236
 20
1.92363
 11
20.9672
 21
1.99596
  0
LINE
  8
0
 10
20.9672
 20
1.99596
 11
20.7235
 21
2.05177
  0
LINE
  8
0
 10
20.7235
 20
2.05177
 11
20.5057
 21
2.09308
  0
LINE
  8
0
 10
20.5057
 20
2.09308
 11
20.3145
 21
2.12192
  0
LINE
  8
0
 10
20.3145
 20
2.12192
 11
20.2783
 21
2.11813
  0
LINE
  8
0
 10
20.2783
 20
2.11813
 11
20.1355
 21
3.20244
  0
LINE
  8
0
 10
20.1355
 20
3.20244
 11
20.1715
 21
3.20815
  0
LINE
  8
0
 10
20.1715
 20
3.20815
 11
20.3487
 21
3.28549
  0
LINE
  8
0
 10
20.3487
 20
3.28549
 11
20.5484
 21
3.38176
  0
LINE
  8
0
 10
20.5484
 20
3.38176
 11
20.7693
 21
3.49875
  0
LINE
  8
0
 10
20.7693
 20
3.49875
 11
21.0102
 21
3.63818
  0
LINE
  8
0
 10
21.0102
 20
3.63818
 11
21.2697
 21
3.80171
  0
LINE
  8
0
 10
21.2697
 20
3.80171
 11
21.5462
 21
3.99092
  0
LINE
  8
0
 10
21.5462
 20
3.99092
 11
21.8381
 21
4.20731
  0
LINE
  8
0
 10
21.8381
 20
4.20731
 11
22.1437
 21
4.45227
  0
LINE
  8
0
 10
22.1437
 20
4.45227
 11
22.4613
 21
4.72714
  0
LINE
  8
0
 10
22.4613
 20
4.72714
 11
22.7891
 21
5.03314
  0
LINE
  8
0
 10
22.7891
 20
5.03314
 11
23.125
 21
5.37141
  0
LINE
  8
0
 10
23.125
 20
5.37141
 11
23.4671
 21
5.74298
  0
LINE
  8
0
 10
23.4671
 20
5.74298
 11
23.1946
 21
6.75996
  0
LINE
  8
0
 10
23.1946
 20
6.75996
 11
22.7125
 21
6.91069
  0
LINE
  8
0
 10
22.7125
 20
6.91069
 11
22.2525
 21
7.03569
  0
LINE
  8
0
 10
22.2525
 20
7.03569
 11
21.8157
 21
7.13683
  0
LINE
  8
0
 10
21.8157
 20
7.13683
 11
21.4032
 21
7.21608
  0
LINE
  8
0
 10
21.4032
 20
7.21608
 11
21.016
 21
7.27541
  0
LINE
  8
0
 10
21.016
 20
7.27541
 11
20.655
 21
7.31683
  0
LINE
  8
0
 10
20.655
 20
7.31683
 11
20.321
 21
7.34245
  0
LINE
  8
0
 10
20.321
 20
7.34245
 11
20.0145
 21
7.35435
  0
LINE
  8
0
 10
20.0145
 20
7.35435
 11
19.7361
 21
7.35464
  0
LINE
  8
0
 10
19.7361
 20
7.35464
 11
19.4863
 21
7.34547
  0
LINE
  8
0
 10
19.4863
 20
7.34547
 11
19.2652
 21
7.32901
  0
LINE
  8
0
 10
19.2652
 20
7.32901
 11
19.0731
 21
7.30739
  0
LINE
  8
0
 10
19.0731
 20
7.30739
 11
19.0391
 21
7.29437
  0
LINE
  8
0
 10
19.0391
 20
7.29437
 11
18.6206
 21
8.30478
  0
LINE
  8
0
 10
18.6206
 20
8.30478
 11
18.6538
 21
8.3196
  0
LINE
  8
0
 10
18.6538
 20
8.3196
 11
18.805
 21
8.44017
  0
LINE
  8
0
 10
18.805
 20
8.44017
 11
18.9729
 21
8.58484
  0
LINE
  8
0
 10
18.9729
 20
8.58484
 11
19.1561
 21
8.75504
  0
LINE
  8
0
 10
19.1561
 20
8.75504
 11
19.3527
 21
8.95207
  0
LINE
  8
0
 10
19.3527
 20
8.95207
 11
19.561
 21
9.17717
  0
LINE
  8
0
 10
19.561
 20
9.17717
 11
19.7791
 21
9.4315
  0
LINE
  8
0
 10
19.7791
 20
9.4315
 11
20.0051
 21
9.71606
  0
LINE
  8
0
 10
20.0051
 20
9.71606
 11
20.2369
 21
10.0318
  0
LINE
  8
0
 10
20.2369
 20
10.0318
 11
20.4725
 21
10.3795
  0
LINE
  8
0
 10
20.4725
 20
10.3795
 11
20.7099
 21
10.7599
  0
LINE
  8
0
 10
20.7099
 20
10.7599
 11
20.9468
 21
11.1736
  0
LINE
  8
0
 10
20.9468
 20
11.1736
 11
21.181
 21
11.621
  0
LINE
  8
0
 10
21.181
 20
11.621
 11
20.6546
 21
12.5328
  0
LINE
  8
0
 10
20.6546
 20
12.5328
 11
20.15
 21
12.5536
  0
LINE
  8
0
 10
20.15
 20
12.5536
 11
19.6733
 21
12.5553
  0
LINE
  8
0
 10
19.6733
 20
12.5553
 11
19.2252
 21
12.54
  0
LINE
  8
0
 10
19.2252
 20
12.54
 11
18.8062
 21
12.5098
  0
LINE
  8
0
 10
18.8062
 20
12.5098
 11
18.4169
 21
12.4668
  0
LINE
  8
0
 10
18.4169
 20
12.4668
 11
18.0575
 21
12.4134
  0
LINE
  8
0
 10
18.0575
 20
12.4134
 11
17.7282
 21
12.3517
  0
LINE
  8
0
 10
17.7282
 20
12.3517
 11
17.4291
 21
12.2839
  0
LINE
  8
0
 10
17.4291
 20
12.2839
 11
17.1601
 21
12.2121
  0
LINE
  8
0
 10
17.1601
 20
12.2121
 11
16.9212
 21
12.1386
  0
LINE
  8
0
 10
16.9212
 20
12.1386
 11
16.7119
 21
12.0655
  0
LINE
  8
0
 10
16.7119
 20
12.0655
 11
16.5319
 21
11.9949
  0
LINE
  8
0
 10
16.5319
 20
11.9949
 11
16.5024
 21
11.9735
  0
LINE
  8
0
 10
16.5024
 20
11.9735
 11
15.8367
 21
12.8412
  0
LINE
  8
0
 10
15.8367
 20
12.8412
 11
15.8649
 21
12.8641
  0
LINE
  8
0
 10
15.8649
 20
12.8641
 11
15.9797
 21
13.0197
  0
LINE
  8
0
 10
15.9797
 20
13.0197
 11
16.1045
 21
13.2029
  0
LINE
  8
0
 10
16.1045
 20
13.2029
 11
16.2374
 21
13.4147
  0
LINE
  8
0
 10
16.2374
 20
13.4147
 11
16.3763
 21
13.6559
  0
LINE
  8
0
 10
16.3763
 20
13.6559
 11
16.5192
 21
13.9272
  0
LINE
  8
0
 10
16.5192
 20
13.9272
 11
16.6641
 21
14.2293
  0
LINE
  8
0
 10
16.6641
 20
14.2293
 11
16.8087
 21
14.5627
  0
LINE
  8
0
 10
16.8087
 20
14.5627
 11
16.9509
 21
14.9277
  0
LINE
  8
0
 10
16.9509
 20
14.9277
 11
17.0885
 21
15.3245
  0
LINE
  8
0
 10
17.0885
 20
15.3245
 11
17.2193
 21
15.7534
  0
LINE
  8
0
 10
17.2193
 20
15.7534
 11
17.3411
 21
16.2143
  0
LINE
  8
0
 10
17.3411
 20
16.2143
 11
17.4516
 21
16.7071
  0
LINE
  8
0
 10
17.4516
 20
16.7071
 11
16.7071
 21
17.4516
  0
LINE
  8
0
 10
16.7071
 20
17.4516
 11
16.2143
 21
17.3411
  0
LINE
  8
0
 10
16.2143
 20
17.3411
 11
15.7534
 21
17.2193
  0
LINE
  8
0
 10
15.7534
 20
17.2193
 11
15.3245
 21
17.0885
  0
LINE
  8
0
 10
15.3245
 20
17.0885
 11
14.9277
 21
16.9509
  0
LINE
  8
0
 10
14.9277
 20
16.9509
 11
14.5627
 21
16.8087
  0
LINE
  8
0
 10
14.5627
 20
16.8087
 11
14.2293
 21
16.6641
  0
LINE
  8
0
 10
14.2293
 20
16.6641
 11
13.9272
 21
16.5192
  0
LINE
  8
0
 10
13.9272
 20
16.5192
 11
13.6559
 21
16.3763
  0
LINE
  8
0
 10
13.6559
 20
16.3763
 11
13.4147
 21
16.2374
  0
LINE
  8
0
 10
13.4147
 20
16.2374
 11
13.2029
 21
16.1045
  0
LINE
  8
0
 10
13.2029
 20
16.1045
 11
13.0197
 21
15.9797
  0
LINE
  8
0
 10
13.0197
 20
15.9797
 11
12.8641
 21
15.8649
  0
LINE
  8
0
 10
12.8641
 20
15.8649
 11
12.8412
 21
15.8367
  0
LINE
  8
0
 10
12.8412
 20
15.8367
 11
11.9735
 21
16.5024
  0
LINE
  8
0
 10
11.9735
 20
16.5024
 11
11.9949
 21
16.5319
  0
LINE
  8
0
 10
11.9949
 20
16.5319
 11
12.0655
 21
16.7119
  0
LINE
  8
0
 10
12.0655
 20
16.7119
 11
12.1386
 21
16.9212
  0
LINE
  8
0
 10
12.1386
 20
16.9212
 11
12.2121
 21
17.1601
  0
LINE
  8
0
 10
12.2121
 20
17.1601
 11
12.2839
 21
17.4291
  0
LINE
  8
0
 10
12.2839
 20
17.4291
 11
12.3517
 21
17.7282
  0
LINE
  8
0
 10
12.3517
 20
17.7282
 11
12.4134
 21
18.0575
  0
LINE
  8
0
 10
12.4134
 20
18.0575
 11
12.4668
 21
18.4169
  0
LINE
  8
0
 10
12.4668
 20
18.4169
 11
12.5098
 21
18.8062
  0
LINE
  8
0
 10
12.5098
 20
18.8062
 11
12.54
 21
19.2252
  0
LINE
  8
0
 10
12.54
 20
19.2252
 11
12.5553
 21
19.6733
  0
LINE
  8
0
 10
12.5553
 20
19.6733
 11
12.5536
 21
20.15
  0
LINE
  8
0
 10
12.5536
 20
20.15
 11
12.5328
 21
20.6546
  0
LINE
  8
0
 10
12.5328
 20
20.6546
 11
11.621
 21
21.181
  0
LINE
  8
0
 10
11.621
 20
21.181
 11
11.1736
 21
20.9468
  0
LINE
  8
0
 10
11.1736
 20
20.9468
 11
10.7599
 21
20.7099
  0
LINE
  8
0
 10
10.7599
 20
20.7099
 11
10.3795
 21
20.4725
  0
LINE
  8
0
 10
10.3795
 20
20.4725
 11
10.0318
 21
20.2369
  0
LINE
  8
0
 10
10.0318
 20
20.2369
 11
9.71606
 21
20.0051
  0
LINE
  8
0
 10
9.71606
 20
20.0051
 11
9.4315
 21
19.7791
  0
LINE
  8
0
 10
9.4315
 20
19.7791
 11
9.17717
 21
19.561
  0
LINE
  8
0
 10
9.17717
 20
19.561
 11
8.95207
 21
19.3527
  0
LINE
  8
0
 10
8.95207
 20
19.3527
 11
8.75504
 21
19.1561
  0
LINE
  8
0
 10
8.75504
 20
19.1561
 11
8.58484
 21
18.9729
  0
LINE
  8
0
 10
8.58484
 20
18.9729
 11
8.44017
 21
18.805
  0
LINE
  8
0
 10
8.44017
 20
18.805
 11
8.3196
 21
18.6538
  0
LINE
  8
0
 10
8.3196
 20
18.6538
 11
8.30478
 21
18.6206
  0
LINE
  8
0
 10
8.30478
 20
18.6206
 11
7.29437
 21
19.0391
  0
LINE
  8
0
 10
7.29437
 20
19.0391
 11
7.30739
 21
19.0731
  0
LINE
  8
0
 10
7.30739
 20
19.0731
 11
7.32901
 21
19.2652
  0
LINE
  8
0
 10
7.32901
 20
19.2652
 11
7.34547
 21
19.4863
  0
LINE
  8
0
 10
7.34547
 20
19.4863
 11
7.35464
 21
19.7361
  0
LINE
  8
0
 10
7.35464
 20
19.7361
 11
7.35435
 21
20.0145
  0
LINE
  8
0
 10
7.35435
 20
20.0145
 11
7.34245
 21
20.321
  0
LINE
  8
0
 10
7.34245
 20
20.321
 11
7.31683
 21
20.655
  0
LINE
  8
0
 10
7.31683
 20
20.655
 11
7.27541
 21
21.016
  0
LINE
  8
0
 10
7.27541
 20
21.016
 11
7.21608
 21
21.4032
  0
LINE
  8
0
 10
7.21608
 20
21.4032
 11
7.13683
 21
21.8157
  0
LINE
  8
0
 10
7.13683
 20
21.8157
 11
7.03569
 21
22.2525
  0
LINE
  8
0
 10
7.03569
 20
22.2525
 11
6.91069
 21
22.7125
  0
LINE
  8
0
 10
6.91069
 20
22.7125
 11
6.75996
 21
23.1946
  0
LINE
  8
0
 10
6.75996
 20
23.1946
 11
5.74298
 21
23.4671
  0
LINE
  8
0
 10
5.74298
 20
23.4671
 11
5.37141
 21
23.125
  0
LINE
  8
0
 10
5.37141
 20
23.125
 11
5.03314
 21
22.7891
  0
LINE
  8
0
 10
5.03314
 20
22.7891
 11
4.72714
 21
22.4613
  0
LINE
  8
0
 10
4.72714
 20
22.4613
 11
4.45227
 21
22.1437
  0
LINE
  8
0
 10
4.45227
 20
22.1437
 11
4.20731
 21
21.8381
  0
LINE
  8
0
 10
4.20731
 20
21.8381
 11
3.99092
 21
21.5462
  0
LINE
  8
0
 10
3.99092
 20
21.5462
 11
3.80171
 21
21.2697
  0
LINE
  8
0
 10
3.80171
 20
21.2697
 11
3.63818
 21
21.0102
  0
LINE
  8
0
 10
3.63818
 20
21.0102
 11
3.49875
 21
20.7693
  0
LINE
  8
0
 10
3.49875
 20
20.7693
 11
3.38176
 21
20.5484
  0
LINE
  8
0
 10
3.38176
 20
20.5484
 11
3.28549
 21
20.3487
  0
LINE
  8
0
 10
3.28549
 20
20.3487
 11
3.20815
 21
20.1715
  0
LINE
  8
0
 10
3.20815
 20
20.1715
 11
3.20244
 21
20.1355
  0
LINE
  8
0
 10
3.20244
 20
20.1355
 11
2.11813
 21
20.2783
  0
LINE
  8
0
 10
2.11813
 20
20.2783
 11
2.12192
 21
20.3145
  0
LINE
  8
0
 10
2.12192
 20
20.3145
 11
2.09308
 21
20.5057
  0
LINE
  8
0
 10
2.09308
 20
20.5057
 11
2.05177
 21
20.7235
  0
LINE
  8
0
 10
2.05177
 20
20.7235
 11
1.99596
 21
20.9672
  0
LINE
  8
0
 10
1.99596
 20
20.9672
 11
1.92363
 21
21.236
  0
LINE
  8
0
 10
1.92363
 20
21.236
 11
1.83282
 21
21.5289
  0
LINE
  8
0
 10
1.83282
 20
21.5289
 11
1.72162
 21
21.845
  0
LINE
  8
0
 10
1.72162
 20
21.845
 11
1.58817
 21
22.1829
  0
LINE
  8
0
 10
1.58817
 20
22.1829
 11
1.43065
 21
22.5415
  0
LINE
  8
0
 10
1.43065
 20
22.5415
 11
1.24734
 21
22.9195
  0
LINE
  8
0
 10
1.24734
 20
22.9195
 11
1.03659
 21
23.3152
  0
LINE
  8
0
 10
1.03659
 20
23.3152
 11
0.796783
 21
23.7272
  0
LINE
  8
0
 10
0.796783
 20
23.7272
 11
0.526428
 21
24.1538
  0
LINE
  8
0
 10
0.526428
 20
24.1538
 11
-0.526428
 21
24.1538
  0
LINE
  8
0
 10
-0.526428
 20
24.1538
 11
-0.796783
 21
23.7272
  0
LINE
  8
0
 10
-0.796783
 20
23.7272
 11
-1.03659
 21
23.3152
  0
LINE
  8
0
 10
-1.03659
 20
23.3152
 11
-1.24734
 21
22.9195
  0
LINE
  8
0
 10
-1.24734
 20
22.9195
 11
-1.43065
 21
22.5415
  0
LINE
  8
0
 10
-1.43065
 20
22.5415
 11
-1.58817
 21
22.1829
  0
LINE
  8
0
 10
-1.58817
 20
22.1829
 11
-1.72162
 21
21.845
  0
LINE
  8
0
 10
-1.72162
 20
21.845
 11
-1.83282
 21
21.5289
  0
LINE
  8
0
 10
-1.83282
 20
21.5289
 11
-1.92363
 21
21.236
  0
LINE
  8
0
 10
-1.92363
 20
21.236
 11
-1.99596
 21
20.9672
  0
LINE
  8
0
 10
-1.99596
 20
20.9672
 11
-2.05177
 21
20.7235
  0
LINE
  8
0
 10
-2.05177
 20
20.7235
 11
-2.09308
 21
20.5057
  0
LINE
  8
0
 10
-2.09308
 20
20.5057
 11
-2.12192
 21
20.3145
  0
LINE
  8
0
 10
-2.12192
 20
20.3145
 11
-2.11813
 21
20.2783
  0
LINE
  8
0
 10
-2.11813
 20
20.2783
 11
-3.20244
 21
20.1355
  0
LINE
  8
0
 10
-3.20244
 20
20.1355
 11
-3.20815
 21
20.1715
  0
LINE
  8
0
 10
-3.20815
 20
20.1715
 11
-3.28549
 21
20.3487
  0
LINE
  8
0
 10
-3.28549
 20
20.3487
 11
-3.38176
 21
20.5484
  0
LINE
  8
0
 10
-3.38176
 20
20.5484
 11
-3.49875
 21
20.7693
  0
LINE
  8
0
 10
-3.49875
 20
20.7693
 11
-3.63818
 21
21.0102
  0
LINE
  8
0
 10
-3.63818
 20
21.0102
 11
-3.80171
 21
21.2697
  0
LINE
  8
0
 10
-3.80171
 20
21.2697
 11
-3.99092
 21
21.5462
  0
LINE
  8
0
 10
-3.99092
 20
21.5462
 11
-4.20731
 21
21.8381
  0
LINE
  8
0
 10
-4.20731
 20
21.8381
 11
-4.45227
 21
22.1437
  0
LINE
  8
0
 10
-4.45227
 20
22.1437
 11
-4.72714
 21
22.4613
  0
LINE
  8
0
 10
-4.72714
 20
22.4613
 11
-5.03314
 21
22.7891
  0
LINE
  8
0
 10
-5.03314
 20
22.7891
 11
-5.37141
 21
23.125
  0
LINE
  8
0
 10
-5.37141
 20
23.125
 11
-5.74298
 21
23.4671
  0
LINE
  8
0
 10
-5.74298
 20
23.4671
 11
-6.75996
 21
23.1946
  0
LINE
  8
0
 10
-6.75996
 20
23.1946
 11
-6.91069
 21
22.7125
  0
LINE
  8
0
 10
-6.91069
 20
22.7125
 11
-7.03569
 21
22.2525
  0
LINE
  8
0
 10
-7.03569
 20
22.2525
 11
-7.13683
 21
21.8157
  0
LINE
  8
0
 10
-7.13683
 20
21.8157
 11
-7.21608
 21
21.4032
  0
LINE
  8
0
 10
-7.21608
 20
21.4032
 11
-7.27541
 21
21.016
  0
LINE
  8
0
 10
-7.27541
 20
21.016
 11
-7.31683
 21
20.655
  0
LINE
  8
0
 10
-7.31683
 20
20.655
 11
-7.34245
 21
20.321
  0
LINE
  8
0
 10
-7.34245
 20
20.321
 11
-7.35435
 21
20.0145
  0
LINE
  8
0
 10
-7.35435
 20
20.0145
 11
-7.35464
 21
19.7361
  0
LINE
  8
0
 10
-7.35464
 20
19.7361
 11
-7.34547
 21
19.4863
  0
LINE
  8
0
 10
-7.34547
 20
19.4863
 11
-7.32901
 21
19.2652
  0
LINE
  8
0
 10
-7.32901
 20
19.2652
 11
-7.30739
 21
19.0731
  0
LINE
  8
0
 10
-7.30739
 20
19.0731
 11
-7.29437
 21
19.0391
  0
LINE
  8
0
 10
-7.29437
 20
19.0391
 11
-8.30478
 21
18.6206
  0
LINE
  8
0
 10
-8.30478
 20
18.6206
 11
-8.3196
 21
18.6538
  0
LINE
  8
0
 10
-8.3196
 20
18.6538
 11
-8.44017
 21
18.805
  0
LINE
  8
0
 10
-8.44017
 20
18.805
 11
-8.58484
 21
18.9729
  0
LINE
  8
0
 10
-8.58484
 20
18.9729
 11
-8.75504
 21
19.1561
  0
LINE
  8
0
 10
-8.75504
 20
19.1561
 11
-8.95207
 21
19.3527
  0
LINE
  8
0
 10
-8.95207
 20
19.3527
 11
-9.17717
 21
19.561
  0
LINE
  8
0
 10
-9.17717
 20
19.561
 11
-9.4315
 21
19.7791
  0
LINE
  8
0
 10
-9.4315
 20
19.7791
 11
-9.71606
 21
20.0051
  0
LINE
  8
0
 10
-9.71606
 20
20.0051
 11
-10.0318
 21
20.2369
  0
LINE
  8
0
 10
-10.0318
 20
20.2369
 11
-10.3795
 21
20.4725
  0
LINE
  8
0
 10
-10.3795
 20
20.4725
 11
-10.7599
 21
20.7099
  0
LINE
  8
0
 10
-10.7599
 20
20.7099
 11
-11.1736
 21
20.9468
  0
LINE
  8
0
 10
-11.1736
 20
20.9468
 11
-11.621
 21
21.181
  0
LINE
  8
0
 10
-11.621
 20
21.181
 11
-12.5328
 21
20.6546
  0
LINE
  8
0
 10
-12.5328
 20
20.6546
 11
-12.5536
 21
20.15
  0
LINE
  8
0
 10
-12.5536
 20
20.15
 11
-12.5553
 21
19.6733
  0
LINE
  8
0
 10
-12.5553
 20
19.6733
 11
-12.54
 21
19.2252
  0
LINE
  8
0
 10
-12.54
 20
19.2252
 11
-12.5098
 21
18.8062
  0
LINE
  8
0
 10
-12.5098
 20
18.8062
 11
-12.4668
 21
18.4169
  0
LINE
  8
0
 10
-12.4668
 20
18.4169
 11
-12.4134
 21
18.0575
  0
LINE
  8
0
 10
-12.4134
 20
18.0575
 11
-12.3517
 21
17.7282
  0
LINE
  8
0
 10
-12.3517
 20
17.7282
 11
-12.2839
 21
17.4291
  0
LINE
  8
0
 10
-12.2839
 20
17.4291
 11
-12.2121
 21
17.1601
  0
LINE
  8
0
 10
-12.2121
 20
17.1601
 11
-12.1386
 21
16.9212
  0
LINE
  8
0
 10
-12.1386
 20
16.9212
 11
-12.0655
 21
16.7119
  0
LINE
  8
0
 10
-12.0655
 20
16.7119
 11
-11.9949
 21
16.5319
  0
LINE
  8
0
 10
-11.9949
 20
16.5319
 11
-11.9735
 21
16.5024
  0
LINE
  8
0
 10
-11.9735
 20
16.5024
 11
-12.8412
 21
15.8367
  0
LINE
  8
0
 10
-12.8412
 20
15.8367
 11
-12.8641
 21
15.8649
  0
LINE
  8
0
 10
-12.8641
 20
15.8649
 11
-13.0197
 21
15.9797
  0
LINE
  8
0
 10
-13.0197
 20
15.9797
 11
-13.2029
 21
16.1045
  0
LINE
  8
0
 10
-13.2029
 20
16.1045
 11
-13.4147
 21
16.2374
  0
LINE
  8
0
 10
-13.4147
 20
16.2374
 11
-13.6559
 21
16.3763
  0
LINE
  8
0
 10
-13.6559
 20
16.3763
 11
-13.9272
 21
16.5192
  0
LINE
  8
0
 10
-13.9272
 20
16.5192
 11
-14.2293
 21
16.6641
  0
LINE
  8
0
 10
-14.2293
 20
16.6641
 11
-14.5627
 21
16.8087
  0
LINE
  8
0
 10
-14.5627
 20
16.8087
 11
-14.9277
 21
16.9509
  0
LINE
  8
0
 10
-14.9277
 20
16.9509
 11
-15.3245
 21
17.0885
  0
LINE
  8
0
 10
-15.3245
 20
17.0885
 11
-15.7534
 21
17.2193
  0
LINE
  8
0
 10
-15.7534
 20
17.2193
 11
-16.2143
 21
17.3411
  0
LINE
  8
0
 10
-16.2143
 20
17.3411
 11
-16.7071
 21
17.4516
  0
LINE
  8
0
 10
-16.7071
 20
17.4516
 11
-17.4516
 21
16.7071
  0
LINE
  8
0
 10
-17.4516
 20
16.7071
 11
-17.3411
 21
16.2143
  0
LINE
  8
0
 10
-17.3411
 20
16.2143
 11
-17.2193
 21
15.7534
  0
LINE
  8
0
 10
-17.2193
 20
15.7534
 11
-17.0885
 21
15.3245
  0
LINE
  8
0
 10
-17.0885
 20
15.3245
 11
-16.9509
 21
14.9277
  0
LINE
  8
0
 10
-16.9509
 20
14.9277
 11
-16.8087
 21
14.5627
  0
LINE
  8
0
 10
-16.8087
 20
14.5627
 11
-16.6641
 21
14.2293
  0
LINE
  8
0
 10
-16.6641
 20
14.2293
 11
-16.5192
 21
13.9272
  0
LINE
  8
0
 10
-16.5192
 20
13.9272
 11
-16.3763
 21
13.6559
  0
LINE
  8
0
 10
-16.3763
 20
13.6559
 11
-16.2374
 21
13.4147
  0
LINE
  8
0
 10
-16.2374
 20
13.4147
 11
-16.1045
 21
13.2029
  0
LINE
  8
0
 10
-16.1045
 20
13.2029
 11
-15.9797
 21
13.0197
  0
LINE
  8
0
 10
-15.9797
 20
13.0197
 11
-15.8649
 21
12.8641
  0
LINE
  8
0
 10
-15.8649
 20
12.8641
 11
-15.8367
 21
12.8412
  0
LINE
  8
0
 10
-15.8367
 20
12.8412
 11
-16.5024
 21
11.9735
  0
LINE
  8
0
 10
-16.5024
 20
11.9735
 11
-16.5319
 21
11.9949
  0
LINE
  8
0
 10
-16.5319
 20
11.9949
 11
-16.7119
 21
12.0655
  0
LINE
  8
0
 10
-16.7119
 20
12.0655
 11
-16.9212
 21
12.1386
  0
LINE
  8
0
 10
-16.9212
 20
12.1386
 11
-17.1601
 21
12.2121
  0
LINE
  8
0
 10
-17.1601
 20
12.2121
 11
-17.4291
 21
12.2839
  0
LINE
  8
0
 10
-17.4291
 20
12.2839
 11
-17.7282
 21
12.3517
  0
LINE
  8
0
 10
-17.7282
 20
12.3517
 11
-18.0575
 21
12.4134
  0
LINE
  8
0
 10
-18.0575
 20
12.4134
 11
-18.4169
 21
12.4668
  0
LINE
  8
0
 10
-18.4169
 20
12.4668
 11
-18.8062
 21
12.5098
  0
LINE
  8
0
 10
-18.8062
 20
12.5098
 11
-19.2252
 21
12.54
  0
LINE
  8
0
 10
-19.2252
 20
12.54
 11
-19.6733
 21
12.5553
  0
LINE
  8
0
 10
-19.6733
 20
12.5553
 11
-20.15
 21
12.5536
  0
LINE
  8
0
 10
-20.15
 20
12.5536
 11
-20.6546
 21
12.5328
  0
LINE
  8
0
 10
-20.6546
 20
12.5328
 11
-21.181
 21
11.621
  0
LINE
  8
0
 10
-21.181
 20
11.621
 11
-20.9468
 21
11.1736
  0
LINE
  8
0
 10
-20.9468
 20
11.1736
 11
-20.7099
 21
10.7599
  0
LINE
  8
0
 10
-20.7099
 20
10.7599
 11
-20.4725
 21
10.3795
  0
LINE
  8
0
 10
-20.4725
 20
10.3795
 11
-20.2369
 21
10.0318
  0
LINE
  8
0
 10
-20.2369
 20
10.0318
 11
-20.0051
 21
9.71606
  0
LINE
  8
0
 10
-20.0051
 20
9.71606
 11
-19.7791
 21
9.4315
  0
LINE
  8
0
 10
-19.7791
 20
9.4315
 11
-19.561
 21
9.17717
  0
LINE
  8
0
 10
-19.561
 20
9.17717
 11
-19.3527
 21
8.95207
  0
LINE
  8
0
 10
-19.3527
 20
8.95207
 11
-19.1561
 21
8.75504
  0
LINE
  8
0
 10
-19.1561
 20
8.75504
 11
-18.9729
 21
8.58484
  0
LINE
  8
0
 10
-18.9729
 20
8.58484
 11
-18.805
 21
8.44017
  0
LINE
  8
0
 10
-18.805
 20
8.44017
 11
-18.6538
 21
8.3196
  0
LINE
  8
0
 10
-18.6538
 20
8.3196
 11
-18.6206
 21
8.30478
  0
LINE
  8
0
 10
-18.6206
 20
8.30478
 11
-19.0391
 21
7.29437
  0
LINE
  8
0
 10
-19.0391
 20
7.29437
 11
-19.0731
 21
7.30739
  0
LINE
  8
0
 10
-19.0731
 20
7.30739
 11
-19.2652
 21
7.32901
  0
LINE
  8
0
 10
-19.2652
 20
7.32901
 11
-19.4863
 21
7.34547
  0
LINE
  8
0
 10
-19.4863
 20
7.34547
 11
-19.7361
 21
7.35464
  0
LINE
  8
0
 10
-19.7361
 20
7.35464
 11
-20.0145
 21
7.35435
  0
LINE
  8
0
 10
-20.0145
 20
7.35435
 11
-20.321
 21
7.34245
  0
LINE
  8
0
 10
-20.321
 20
7.34245
 11
-20.655
 21
7.31683
  0
LINE
  8
0
 10
-20.655
 20
7.31683
 11
-21.016
 21
7.27541
  0
LINE
  8
0
 10
-21.016
 20
7.27541
 11
-21.4032
 21
7.21608
  0
LINE
  8
0
 10
-21.4032
 20
7.21608
 11
-21.8157
 21
7.13683
  0
LINE
  8
0
 10
-21.8157
 20
7.13683
 11
-22.2525
 21
7.03569
  0
LINE
  8
0
 10
-22.2525
 20
7.03569
 11
-22.7125
 21
6.91069
  0
LINE
  8
0
 10
-22.7125
 20
6.91069
 11
-23.1946
 21
6.75996
  0
LINE
  8
0
 10
-23.1946
 20
6.75996
 11
-23.4671
 21
5.74298
  0
LINE
  8
0
 10
-23.4671
 20
5.74298
 11
-23.125
 21
5.37141
  0
LINE
  8
0
 10
-23.125
 20
5.37141
 11
-22.7891
 21
5.03314
  0
LINE
  8
0
 10
-22.7891
 20
5.03314
 11
-22.4613
 21
4.72714
  0
LINE
  8
0
 10
-22.4613
 20
4.72714
 11
-22.1437
 21
4.45227
  0
LINE
  8
0
 10
-22.1437
 20
4.45227
 11
-21.8381
 21
4.20731
  0
LINE
  8
0
 10
-21.8381
 20
4.20731
 11
-21.5462
 21
3.99092
  0
LINE
  8
0
 10
-21.5462
 20
3.99092
 11
-21.2697
 21
3.80171
  0
LINE
  8
0
 10
-21.2697
 20
3.80171
 11
-21.0102
 21
3.63818
  0
LINE
  8
0
 10
-21.0102
 20
3.63818
 11
-20.7693
 21
3.49875
  0
LINE
  8
0
 10
-20.7693
 20
3.49875
 11
-20.5484
 21
3.38176
  0
LINE
  8
0
 10
-20.5484
 20
3.38176
 11
-20.3487
 21
3.28549
  0
LINE
  8
0
 10
-20.3487
 20
3.28549
 11
-20.1715
 21
3.20815
  0
LINE
  8
0
 10
-20.1715
 20
3.20815
 11
-20.1355
 21
3.20244
  0
LINE
  8
0
 10
-20.1355
 20
3.20244
 11
-20.2783
 21
2.11813
  0
LINE
  8
0
 10
-20.2783
 20
2.11813
 11
-20.3145
 21
2.12192
  0
LINE
  8
0
 10
-20.3145
 20
2.12192
 11
-20.5057
 21
2.09308
  0
LINE
  8
0
 10
-20.5057
 20
2.09308
 11
-20.7235
 21
2.05177
  0
LINE
  8
0
 10
-20.7235
 20
2.05177
 11
-20.9672
 21
1.99596
  0
LINE
  8
0
 10
-20.9672
 20
1.99596
 11
-21.236
 21
1.92363
  0
LINE
  8
0
 10
-21.236
 20
1.92363
 11
-21.5289
 21
1.83282
  0
LINE
  8
0
 10
-21.5289
 20
1.83282
 11
-21.845
 21
1.72162
  0
LINE
  8
0
 10
-21.845
 20
1.72162
 11
-22.1829
 21
1.58817
  0
LINE
  8
0
 10
-22.1829
 20
1.58817
 11
-22.5415
 21
1.43065
  0
LINE
  8
0
 10
-22.5415
 20
1.43065
 11
-22.9195
 21
1.24734
  0
LINE
  8
0
 10
-22.9195
 20
1.24734
 11
-23.3152
 21
1.03659
  0
LINE
  8
0
 10
-23.3152
 20
1.03659
 11
-23.7272
 21
0.796783
  0
LINE
  8
0
 10
-23.7272
 20
0.796783
 11
-24.1538
 21
0.526428
  0
LINE
  8
0
 10
-24.1538
 20
0.526428
 11
-24.1538
 21
-0.526428
  0
LINE
  8
0
 10
-24.1538
 20
-0.526428
 11
-23.7272
 21
-0.796783
  0
LINE
  8
0
 10
-23.7272
 20
-0.796783
 11
-23.3152
 21
-1.03659
  0
LINE
  8
0
 10
-23.3152
 20
-1.03659
 11
-22.9195
 21
-1.24734
  0
LINE
  8
0
 10
-22.9195
 20
-1.24734
 11
-22.5415
 21
-1.43065
  0
LINE
  8
0
 10
-22.5415
 20
-1.43065
 11
-22.1829
 21
-1.58817
  0
LINE
  8
0
 10
-22.1829
 20
-1.58817
 11
-21.845
 21
-1.72162
  0
LINE
  8
0
 10
-21.845
 20
-1.72162
 11
-21.5289
 21
-1.83282
  0
LINE
  8
0
 10
-21.5289
 20
-1.83282
 11
-21.236
 21
-1.92363
  0
LINE
  8
0
 10
-21.236
 20
-1.92363
 11
-20.9672
 21
-1.99596
  0
LINE
  8
0
 10
-20.9672
 20
-1.99596
 11
-20.7235
 21
-2.05177
  0
LINE
  8
0
 10
-20.7235
 20
-2.05177
 11
-20.5057
 21
-2.09308
  0
LINE
  8
0
 10
-20.5057
 20
-2.09308
 11
-20.3145
 21
-2.12192
  0
LINE
  8
0
 10
-20.3145
 20
-2.12192
 11
-20.2783
 21
-2.11813
  0
LINE
  8
0
 10
-20.2783
 20
-2.11813
 11
-20.1355
 21
-3.20244
  0
LINE
  8
0
 10
-20.1355
 20
-3.20244
 11
-20.1715
 21
-3.20815
  0
LINE
  8
0
 10
-20.1715
 20
-3.20815
 11
-20.3487
 21
-3.28549
  0
LINE
  8
0
 10
-20.3487
 20
-3.28549
 11
-20.5484
 21
-3.38176
  0
LINE
  8
0
 10
-20.5484
 20
-3.38176
 11
-20.7693
 21
-3.49875
  0
LINE
  8
0
 10
-20.7693
 20
-3.49875
 11
-21.0102
 21
-3.63818
  0
LINE
  8
0
 10
-21.0102
 20
-3.63818
 11
-21.2697
 21
-3.80171
  0
LINE
  8
0
 10
-21.2697
 20
-3.80171
 11
-21.5462
 21
-3.99092
  0
LINE
  8
0
 10
-21.5462
 20
-3.99092
 11
-21.8381
 21
-4.20731
  0
LINE
  8
0
 10
-21.8381
 20
-4.20731
 11
-22.1437
 21
-4.45227
  0
LINE
  8
0
 10
-22.1437
 20
-4.45227
 11
-22.4613
 21
-4.72714
  0
LINE
  8
0
 10
-22.4613
 20
-4.72714
 11
-22.7891
 21
-5.03314
  0
LINE
  8
0
 10
-22.7891
 20
-5.03314
 11
-23.125
 21
-5.37141
  0
LINE
  8
0
 10
-23.125
 20
-5.37141
 11
-23.4671
 21
-5.74298
  0
LINE
  8
0
 10
-23.4671
 20
-5.74298
 11
-23.1946
 21
-6.75996
  0
LINE
  8
0
 10
-23.1946
 20
-6.75996
 11
-22.7125
 21
-6.91069
  0
LINE
  8
0
 10
-22.7125
 20
-6.91069
 11
-22.2525
 21
-7.03569
  0
LINE
  8
0
 10
-22.2525
 20
-7.03569
 11
-21.8157
 21
-7.13683
  0
LINE
  8
0
 10
-21.8157
 20
-7.13683
 11
-21.4032
 21
-7.21608
  0
LINE
  8
0
 10
-21.4032
 20
-7.21608
 11
-21.016
 21
-7.27541
  0
LINE
  8
0
 10
-21.016
 20
-7.27541
 11
-20.655
 21
-7.31683
  0
LINE
  8
0
 10
-20.655
 20
-7.31683
 11
-20.321
 21
-7.34245
  0
LINE
  8
0
 10
-20.321
 20
-7.34245
 11
-20.0145
 21
-7.35435
  0
LINE
  8
0
 10
-20.0145
 20
-7.35435
 11
-19.7361
 21
-7.35464
  0
LINE
  8
0
 10
-19.7361
 20
-7.35464
 11
-19.4863
 21
-7.34547
  0
LINE
  8
0
 10
-19.4863
 20
-7.34547
 11
-19.2652
 21
-7.32901
  0
LINE
  8
0
 10
-19.2652
 20
-7.32901
 11
-19.0731
 21
-7.30739
  0
LINE
  8
0
 10
-19.0731
 20
-7.30739
 11
-19.0391
 21
-7.29437
  0
LINE
  8
0
 10
-19.0391
 20
-7.29437
 11
-18.6206
 21
-8.30478
  0
LINE
  8
0
 10
-18.6206
 20
-8.30478
 11
-18.6538
 21
-8.3196
  0
LINE
  8
0
 10
-18.6538
 20
-8.3196
 11
-18.805
 21
-8.44017
  0
LINE
  8
0
 10
-18.805
 20
-8.44017
 11
-18.9729
 21
-8.58484
  0
LINE
  8
0
 10
-18.9729
 20
-8.58484
 11
-19.1561
 21
-8.75504
  0
LINE
  8
0
 10
-19.1561
 20
-8.75504
 11
-19.3527
 21
-8.95207
  0
LINE
  8
0
 10
-19.3527
 20
-8.95207
 11
-19.561
 21
-9.17717
  0
LINE
  8
0
 10
-19.561
 20
-9.17717
 11
-19.7791
 21
-9.4315
  0
LINE
  8
0
 10
-19.7791
 20
-9.4315
 11
-20.0051
 21
-9.71606
  0
LINE
  8
0
 10
-20.0051
 20
-9.71606
 11
-20.2369
 21
-10.0318
  0
LINE
  8
0
 10
-20.2369
 20
-10.0318
 11
-20.4725
 21
-10.3795
  0
LINE
  8
0
 10
-20.4725
 20
-10.3795
 11
-20.7099
 21
-10.7599
  0
LINE
  8
0
 10
-20.7099
 20
-10.7599
 11
-20.9468
 21
-11.1736
  0
LINE
  8
0
 10
-20.9468
 20
-11.1736
 11
-21.181
 21
-11.621
  0
LINE
  8
0
 10
-21.181
 20
-11.621
 11
-20.6546
 21
-12.5328
  0
LINE
  8
0
 10
-20.6546
 20
-12.5328
 11
-20.15
 21
-12.5536
  0
LINE
  8
0
 10
-20.15
 20
-12.5536
 11
-19.6733
 21
-12.5553
  0
LINE
  8
0
 10
-19.6733
 20
-12.5553
 11
-19.2252
 21
-12.54
  0
LINE
  8
0
 10
-19.2252
 20
-12.54
 11
-18.8062
 21
-12.5098
  0
LINE
  8
0
 10
-18.8062
 20
-12.5098
 11
-18.4169
 21
-12.4668
  0
LINE
  8
0
 10
-18.4169
 20
-12.4668
 11
-18.0575
 21
-12.4134
  0
LINE
  8
0
 10
-18.0575
 20
-12.4134
 11
-17.7282
 21
-12.3517
  0
LINE
  8
0
 10
-17.7282
 20
-12.3517
 11
-17.4291
 21
-12.2839
  0
LINE
  8
0
 10
-17.4291
 20
-12.2839
 11
-17.1601
 21
-12.2121
  0
LINE
  8
0
 10
-17.1601
 20
-12.2121
 11
-16.9212
 21
-12.1386
  0
LINE
  8
0
 10
-16.9212
 20
-12.1386
 11
-16.7119
 21
-12.0655
  0
LINE
  8
0
 10
-16.7119
 20
-12.0655
 11
-16.5319
 21
-11.9949
  0
LINE
  8
0
 10
-16.5319
 20
-11.9949
 11
-16.5024
 21
-11.9735
  0
LINE
  8
0
 10
-16.5024
 20
-11.9735
 11
-15.8367
 21
-12.8412
  0
LINE
  8
0
 10
-15.8367
 20
-12.8412
 11
-15.8649
 21
-12.8641
  0
LINE
  8
0
 10
-15.8649
 20
-12.8641
 11
-15.9797
 21
-13.0197
  0
LINE
  8
0
 10
-15.9797
 20
-13.0197
 11
-16.1045
 21
-13.2029
  0
LINE
  8
0
 10
-16.1045
 20
-13.2029
 11
-16.2374
 21
-13.4147
  0
LINE
  8
0
 10
-16.2374
 20
-13.4147
 11
-16.3763
 21
-13.6559
  0
LINE
  8
0
 10
-16.3763
 20
-13.6559
 11
-16.5192
 21
-13.9272
  0
LINE
  8
0
 10
-16.5192
 20
-13.9272
 11
-16.6641
 21
-14.2293
  0
LINE
  8
0
 10
-16.6641
 20
-14.2293
 11
-16.8087
 21
-14.5627
  0
LINE
  8
0
 10
-16.8087
 20
-14.5627
 11
-16.9509
 21
-14.9277
  0
LINE
  8
0
 10
-16.9509
 20
-14.9277
 11
-17.0885
 21
-15.3245
  0
LINE
  8
0
 10
-17.0885
 20
-15.3245
 11
-17.2193
 21
-15.7534
  0
LINE
  8
0
 10
-17.2193
 20
-15.7534
 11
-17.3411
 21
-16.2143
  0
LINE
  8
0
 10
-17.3411
 20
-16.2143
 11
-17.4516
 21
-16.7071
  0
LINE
  8
0
 10
-17.4516
 20
-16.7071
 11
-16.7071
 21
-17.4516
  0
LINE
  8
0
 10
-16.7071
 20
-17.4516
 11
-16.2143
 21
-17.3411
  0
LINE
  8
0
 10
-16.2143
 20
-17.3411
 11
-15.7534
 21
-17.2193
  0
LINE
  8
0
 10
-15.7534
 20
-17.2193
 11
-15.3245
 21
-17.0885
  0
LINE
  8
0
 10
-15.3245
 20
-17.0885
 11
-14.9277
 21
-16.9509
  0
LINE
  8
0
 10
-14.9277
 20
-16.9509
 11
-14.5627
 21
-16.8087
  0
LINE
  8
0
 10
-14.5627
 20
-16.8087
 11
-14.2293
 21
-16.6641
  0
LINE
  8
0
 10
-14.2293
 20
-16.6641
 11
-13.9272
 21
-16.5192
  0
LINE
  8
0
 10
-13.9272
 20
-16.5192
 11
-13.6559
 21
-16.3763
  0
LINE
  8
0
 10
-13.6559
 20
-16.3763
 11
-13.4147
 21
-16.2374
  0
LINE
  8
0
 10
-13.4147
 20
-16.2374
 11
-13.2029
 21
-16.1045
  0
LINE
  8
0
 10
-13.2029
 20
-16.1045
 11
-13.0197
 21
-15.9797
  0
LINE
  8
0
 10
-13.0197
 20
-15.9797
 11
-12.8641
 21
-15.8649
  0
LINE
  8
0
 10
-12.8641
 20
-15.8649
 11
-12.8412
 21
-15.8367
  0
LINE
  8
0
 10
-12.8412
 20
-15.8367
 11
-11.9735
 21
-16.5024
  0
LINE
  8
0
 10
-11.9735
 20
-16.5024
 11
-11.9949
 21
-16.5319
  0
LINE
  8
0
 10
-11.9949
 20
-16.5319
 11
-12.0655
 21
-16.7119
  0
LINE
  8
0
 10
-12.0655
 20
-16.7119
 11
-12.1386
 21
-16.9212
  0
LINE
  8
0
 10
-12.1386
 20
-16.9212
 11
-12.2121
 21
-17.1601
  0
LINE
  8
0
 10
-12.2121
 20
-17.1601
 11
-12.2839
 21
-17.4291
  0
LINE
  8
0
 10
-12.2839
 20
-17.4291
 11
-12.3517
 21
-17.7282
  0
LINE
  8
0
 10
-12.3517
 20
-17.7282
 11
-12.4134
 21
-18.0575
  0
LINE
  8
0
 10
-12.4134
 20
-18.0575
 11
-12.4668
 21
-18.4169
  0
LINE
  8
0
 10
-12.4668
 20
-18.4169
 11
-12.5098
 21
-18.8062
  0
LINE
  8
0
 10
-12.5098
 20
-18.8062
 11
-12.54
 21
-19.2252
  0
LINE
  8
0
 10
-12.54
 20
-19.2252
 11
-12.5553
 21
-19.6733
  0
LINE
  8
0
 10
-12.5553
 20
-19.6733
 11
-12.5536
 21
-20.15
  0
LINE
  8
0
 10
-12.5536
 20
-20.15
 11
-12.5328
 21
-20.6546
  0
LINE
  8
0
 10
-12.5328
 20
-20.6546
 11
-11.621
 21
-21.181
  0
LINE
  8
0
 10
-11.621
 20
-21.181
 11
-11.1736
 21
-20.9468
  0
LINE
  8
0
 10
-11.1736
 20
-20.9468
 11
-10.7599
 21
-20.7099
  0
LINE
  8
0
 10
-10.7599
 20
-20.7099
 11
-10.3795
 21
-20.4725
  0
LINE
  8
0
 10
-10.3795
 20
-20.4725
 11
-10.0318
 21
-20.2369
  0
LINE
  8
0
 10
-10.0318
 20
-20.2369
 11
-9.71606
 21
-20.0051
  0
LINE
  8
0
 10
-9.71606
 20
-20.0051
 11
-9.4315
 21
-19.7791
  0
LINE
  8
0
 10
-9.4315
 20
-19.7791
 11
-9.17717
 21
-19.561
  0
LINE
  8
0
 10
-9.17717
 20
-19.561
 11
-8.95207
 21
-19.3527
  0
LINE
  8
0
 10
-8.95207
 20
-19.3527
 11
-8.75504
 21
-19.1561
  0
LINE
  8
0
 10
-8.75504
 20
-19.1561
 11
-8.58484
 21
-18.9729
  0
LINE
  8
0
 10
-8.58484
 20
-18.9729
 11
-8.44017
 21
-18.805
  0
LINE
  8
0
 10
-8.44017
 20
-18.805
 11
-8.3196
 21
-18.6538
  0
LINE
  8
0
 10
-8.3196
 20
-18.6538
 11
-8.30478
 21
-18.6206
  0
LINE
  8
0
 10
-8.30478
 20
-18.6206
 11
-7.29437
 21
-19.0391
  0
LINE
  8
0
 10
-7.29437
 20
-19.0391
 11
-7.30739
 21
-19.0731
  0
LINE
  8
0
 10
-7.30739
 20
-19.0731
 11
-7.32901
 21
-19.2652
  0
LINE
  8
0
 10
-7.32901
 20
-19.2652
 11
-7.34547
 21
-19.4863
  0
LINE
  8
0
 10
-7.34547
 20
-19.4863
 11
-7.35464
 21
-19.7361
  0
LINE
  8
0
 10
-7.35464
 20
-19.7361
 11
-7.35435
 21
-20.0145
  0
LINE
  8
0
 10
-7.35435
 20
-20.0145
 11
-7.34245
 21
-20.321
  0
LINE
  8
0
 10
-7.34245
 20
-20.321
 11
-7.31683
 21
-20.655
  0
LINE
  8
0
 10
-7.31683
 20
-20.655
 11
-7.27541
 21
-21.016
  0
LINE
  8
0
 10
-7.27541
 20
-21.016
 11
-7.21608
 21
-21.4032
  0
LINE
  8
0
 10
-7.21608
 20
-21.4032
 11
-7.13683
 21
-21.8157
  0
LINE
  8
0
 10
-7.13683
 20
-21.8157
 11
-7.03569
 21
-22.2525
  0
LINE
  8
0
 10
-7.03569
 20
-22.2525
 11
-6.91069
 21
-22.7125
  0
LINE
  8
0
 10
-6.91069
 20
-22.7125
 11
-6.75996
 21
-23.1946
  0
LINE
  8
0
 10
-6.75996
 20
-23.1946
 11
-5.74298
 21
-23.4671
  0
LINE
  8
0
 10
-5.74298
 20
-23.4671
 11
-5.37141
 21
-23.125
  0
LINE
  8
0
 10
-5.37141
 20
-23.125
 11
-5.03314
 21
-22.7891
  0
LINE
  8
0
 10
-5.03314
 20
-22.7891
 11
-4.72714
 21
-22.4613
  0
LINE
  8
0
 10
-4.72714
 20
-22.4613
 11
-4.45227
 21
-22.1437
  0
LINE
  8
0
 10
-4.45227
 20
-22.1437
 11
-4.20731
 21
-21.8381
  0
LINE
  8
0
 10
-4.20731
 20
-21.8381
 11
-3.99092
 21
-21.5462
  0
LINE
  8
0
 10
-3.99092
 20
-21.5462
 11
-3.80171
 21
-21.2697
  0
LINE
  8
0
 10
-3.80171
 20
-21.2697
 11
-3.63818
 21
-21.0102
  0
LINE
  8
0
 10
-3.63818
 20
-21.0102
 11
-3.49875
 21
-20.7693
  0
LINE
  8
0
 10
-3.49875
 20
-20.7693
 11
-3.38176
 21
-20.5484
  0
LINE
  8
0
 10
-3.38176
 20
-20.5484
 11
-3.28549
 21
-20.3487
  0
LINE
  8
0
 10
-3.28549
 20
-20.3487
 11
-3.20815
 21
-20.1715
  0
LINE
  8
0
 10
-3.20815
 20
-20.1715
 11
-3.20244
 21
-20.1355
  0
LINE
  8
0
 10
-3.20244
 20
-20.1355
 11
-2.11813
 21
-20.2783
  0
LINE
  8
0
 10
-2.11813
 20
-20.2783
 11
-2.12192
 21
-20.3145
  0
LINE
  8
0
 10
-2.12192
 20
-20.3145
 11
-2.09308
 21
-20.5057
  0
LINE
  8
0
 10
-2.09308
 20
-20.5057
 11
-2.05177
 21
-20.7235
  0
LINE
  8
0
 10
-2.05177
 20
-20.7235
 11
-1.99596
 21
-20.9672
  0
LINE
  8
0
 10
-1.99596
 20
-20.9672
 11
-1.92363
 21
-21.236
  0
LINE
  8
0
 10
-1.92363
 20
-21.236
 11
-1.83282
 21
-21.5289
  0
LINE
  8
0
 10
-1.83282
 20
-21.5289
 11
-1.72162
 21
-21.845
  0
LINE
  8
0
 10
-1.72162
 20
-21.845
 11
-1.58817
 21
-22.1829
  0
LINE
  8
0
 10
-1.58817
 20
-22.1829
 11
-1.43065
 21
-22.5415
  0
LINE
  8
0
 10
-1.43065
 20
-22.5415
 11
-1.24734
 21
-22.9195
  0
LINE
  8
0
 10
-1.24734
 20
-22.9195
 11
-1.03659
 21
-23.3152
  0
LINE
  8
0
 10
-1.03659
 20
-23.3152
 11
-0.796783
 21
-23.7272
  0
LINE
  8
0
 10
-0.796783
 20
-23.7272
 11
-0.526428
 21
-24.1538
  0
LINE
  8
0
 10
-0.526428
 20
-24.1538
 11
0.526428
 21
-24.1538
  0
LINE
  8
0
 10
0.526428
 20
-24.1538
 11
0.796783
 21
-23.7272
  0
ENDSEC
  0
SECTION
  2
OBJECTS
  0
DICTIONARY
  0
ENDSEC
  0
EOF
