  0
SECTION
  2
BLOCKS
  0
ENDSEC
  0
SECTION
  2
ENTITIES
  0
LINE
  8
0
 10
0.861206
 20
-6.05121
 11
0.956146
 21
-6.03694
  0
LINE
  8
0
 10
0.956146
 20
-6.03694
 11
1.05086
 21
-6.02118
  0
LINE
  8
0
 10
1.05086
 20
-6.02118
 11
1.06503
 21
-6.01859
  0
LINE
  8
0
 10
1.06503
 20
-6.01859
 11
1.16026
 21
-5.94861
  0
LINE
  8
0
 10
1.16026
 20
-5.94861
 11
1.18503
 21
-5.84245
  0
LINE
  8
0
 10
1.18503
 20
-5.84245
 11
1.17293
 21
-5.73294
  0
LINE
  8
0
 10
1.17293
 20
-5.73294
 11
1.17435
 21
-5.62244
  0
LINE
  8
0
 10
1.17435
 20
-5.62244
 11
1.18906
 21
-5.51178
  0
LINE
  8
0
 10
1.18906
 20
-5.51178
 11
1.21681
 21
-5.40184
  0
LINE
  8
0
 10
1.21681
 20
-5.40184
 11
1.28743
 21
-5.27672
  0
LINE
  8
0
 10
1.28743
 20
-5.27672
 11
1.38411
 21
-5.17133
  0
LINE
  8
0
 10
1.38411
 20
-5.17133
 11
1.50154
 21
-5.08823
  0
LINE
  8
0
 10
1.50154
 20
-5.08823
 11
1.63431
 21
-5.02991
  0
LINE
  8
0
 10
1.63431
 20
-5.02991
 11
1.776
 21
-4.99904
  0
LINE
  8
0
 10
1.776
 20
-4.99904
 11
1.91985
 21
-4.99725
  0
LINE
  8
0
 10
1.91985
 20
-4.99725
 11
2.06001
 21
-5.0257
  0
LINE
  8
0
 10
2.06001
 20
-5.0257
 11
2.19069
 21
-5.0854
  0
LINE
  8
0
 10
2.19069
 20
-5.0854
 11
2.2776
 21
-5.1581
  0
LINE
  8
0
 10
2.2776
 20
-5.1581
 11
2.35457
 21
-5.23897
  0
LINE
  8
0
 10
2.35457
 20
-5.23897
 11
2.42076
 21
-5.32748
  0
LINE
  8
0
 10
2.42076
 20
-5.32748
 11
2.4754
 21
-5.42319
  0
LINE
  8
0
 10
2.4754
 20
-5.42319
 11
2.55769
 21
-5.49455
  0
LINE
  8
0
 10
2.55769
 20
-5.49455
 11
2.67599
 21
-5.49515
  0
LINE
  8
0
 10
2.67599
 20
-5.49515
 11
2.68898
 21
-5.48891
  0
LINE
  8
0
 10
2.68898
 20
-5.48891
 11
2.77487
 21
-5.446
  0
LINE
  8
0
 10
2.77487
 20
-5.446
 11
2.86008
 21
-5.40175
  0
LINE
  8
0
 10
2.86008
 20
-5.40175
 11
2.87276
 21
-5.3949
  0
LINE
  8
0
 10
2.87276
 20
-5.3949
 11
2.9417
 21
-5.29892
  0
LINE
  8
0
 10
2.9417
 20
-5.29892
 11
2.93243
 21
-5.19031
  0
LINE
  8
0
 10
2.93243
 20
-5.19031
 11
2.88708
 21
-5.08989
  0
LINE
  8
0
 10
2.88708
 20
-5.08989
 11
2.85431
 21
-4.98436
  0
LINE
  8
0
 10
2.85431
 20
-4.98436
 11
2.83411
 21
-4.87457
  0
LINE
  8
0
 10
2.83411
 20
-4.87457
 11
2.82651
 21
-4.76144
  0
LINE
  8
0
 10
2.82651
 20
-4.76144
 11
2.85503
 21
-4.62062
  0
LINE
  8
0
 10
2.85503
 20
-4.62062
 11
2.9144
 21
-4.49051
  0
LINE
  8
0
 10
2.9144
 20
-4.49051
 11
3.0004
 21
-4.37518
  0
LINE
  8
0
 10
3.0004
 20
-4.37518
 11
3.10864
 21
-4.27869
  0
LINE
  8
0
 10
3.10864
 20
-4.27869
 11
3.23387
 21
-4.20555
  0
LINE
  8
0
 10
3.23387
 20
-4.20555
 11
3.37012
 21
-4.15941
  0
LINE
  8
0
 10
3.37012
 20
-4.15941
 11
3.51222
 21
-4.14314
  0
LINE
  8
0
 10
3.51222
 20
-4.14314
 11
3.65495
 21
-4.15955
  0
LINE
  8
0
 10
3.65495
 20
-4.15955
 11
3.76007
 21
-4.20183
  0
LINE
  8
0
 10
3.76007
 20
-4.20183
 11
3.85825
 21
-4.25496
  0
LINE
  8
0
 10
3.85825
 20
-4.25496
 11
3.94856
 21
-4.31868
  0
LINE
  8
0
 10
3.94856
 20
-4.31868
 11
4.03011
 21
-4.39281
  0
LINE
  8
0
 10
4.03011
 20
-4.39281
 11
4.13042
 21
-4.43526
  0
LINE
  8
0
 10
4.13042
 20
-4.43526
 11
4.24312
 21
-4.39926
  0
LINE
  8
0
 10
4.24312
 20
-4.39926
 11
4.25356
 21
-4.38933
  0
LINE
  8
0
 10
4.25356
 20
-4.38933
 11
4.32198
 21
-4.32198
  0
LINE
  8
0
 10
4.32198
 20
-4.32198
 11
4.38933
 21
-4.25356
  0
LINE
  8
0
 10
4.38933
 20
-4.25356
 11
4.39926
 21
-4.24312
  0
LINE
  8
0
 10
4.39926
 20
-4.24312
 11
4.43518
 21
-4.13054
  0
LINE
  8
0
 10
4.43518
 20
-4.13054
 11
4.39281
 21
-4.03011
  0
LINE
  8
0
 10
4.39281
 20
-4.03011
 11
4.31865
 21
-3.94861
  0
LINE
  8
0
 10
4.31865
 20
-3.94861
 11
4.25487
 21
-3.85838
  0
LINE
  8
0
 10
4.25487
 20
-3.85838
 11
4.20172
 21
-3.76021
  0
LINE
  8
0
 10
4.20172
 20
-3.76021
 11
4.15955
 21
-3.65495
  0
LINE
  8
0
 10
4.15955
 20
-3.65495
 11
4.14314
 21
-3.51222
  0
LINE
  8
0
 10
4.14314
 20
-3.51222
 11
4.15941
 21
-3.37012
  0
LINE
  8
0
 10
4.15941
 20
-3.37012
 11
4.20555
 21
-3.23387
  0
LINE
  8
0
 10
4.20555
 20
-3.23387
 11
4.27869
 21
-3.10864
  0
LINE
  8
0
 10
4.27869
 20
-3.10864
 11
4.37518
 21
-3.0004
  0
LINE
  8
0
 10
4.37518
 20
-3.0004
 11
4.49051
 21
-2.9144
  0
LINE
  8
0
 10
4.49051
 20
-2.9144
 11
4.62062
 21
-2.85503
  0
LINE
  8
0
 10
4.62062
 20
-2.85503
 11
4.76144
 21
-2.82651
  0
LINE
  8
0
 10
4.76144
 20
-2.82651
 11
4.87448
 21
-2.83424
  0
LINE
  8
0
 10
4.87448
 20
-2.83424
 11
4.98427
 21
-2.85443
  0
LINE
  8
0
 10
4.98427
 20
-2.85443
 11
5.08986
 21
-2.88713
  0
LINE
  8
0
 10
5.08986
 20
-2.88713
 11
5.19031
 21
-2.93243
  0
LINE
  8
0
 10
5.19031
 20
-2.93243
 11
5.29884
 21
-2.9418
  0
LINE
  8
0
 10
5.29884
 20
-2.9418
 11
5.3949
 21
-2.87276
  0
LINE
  8
0
 10
5.3949
 20
-2.87276
 11
5.40175
 21
-2.86008
  0
LINE
  8
0
 10
5.40175
 20
-2.86008
 11
5.446
 21
-2.77487
  0
LINE
  8
0
 10
5.446
 20
-2.77487
 11
5.48891
 21
-2.68898
  0
LINE
  8
0
 10
5.48891
 20
-2.68898
 11
5.49515
 21
-2.67599
  0
LINE
  8
0
 10
5.49515
 20
-2.67599
 11
5.49451
 21
-2.55782
  0
LINE
  8
0
 10
5.49451
 20
-2.55782
 11
5.42319
 21
-2.4754
  0
LINE
  8
0
 10
5.42319
 20
-2.4754
 11
5.32747
 21
-2.42081
  0
LINE
  8
0
 10
5.32747
 20
-2.42081
 11
5.23892
 21
-2.35471
  0
LINE
  8
0
 10
5.23892
 20
-2.35471
 11
5.15805
 21
-2.27777
  0
LINE
  8
0
 10
5.15805
 20
-2.27777
 11
5.0854
 21
-2.19069
  0
LINE
  8
0
 10
5.0854
 20
-2.19069
 11
5.0257
 21
-2.06001
  0
LINE
  8
0
 10
5.0257
 20
-2.06001
 11
4.99725
 21
-1.91985
  0
LINE
  8
0
 10
4.99725
 20
-1.91985
 11
4.99904
 21
-1.776
  0
LINE
  8
0
 10
4.99904
 20
-1.776
 11
5.02991
 21
-1.63431
  0
LINE
  8
0
 10
5.02991
 20
-1.63431
 11
5.08823
 21
-1.50154
  0
LINE
  8
0
 10
5.08823
 20
-1.50154
 11
5.17133
 21
-1.38411
  0
LINE
  8
0
 10
5.17133
 20
-1.38411
 11
5.27672
 21
-1.28743
  0
LINE
  8
0
 10
5.27672
 20
-1.28743
 11
5.40184
 21
-1.21681
  0
LINE
  8
0
 10
5.40184
 20
-1.21681
 11
5.51173
 21
-1.18922
  0
LINE
  8
0
 10
5.51173
 20
-1.18922
 11
5.62239
 21
-1.1745
  0
LINE
  8
0
 10
5.62239
 20
-1.1745
 11
5.73293
 21
-1.17297
  0
LINE
  8
0
 10
5.73293
 20
-1.17297
 11
5.84245
 21
-1.18503
  0
LINE
  8
0
 10
5.84245
 20
-1.18503
 11
5.94856
 21
-1.1604
  0
LINE
  8
0
 10
5.94856
 20
-1.1604
 11
6.01859
 21
-1.06503
  0
LINE
  8
0
 10
6.01859
 20
-1.06503
 11
6.02118
 21
-1.05086
  0
LINE
  8
0
 10
6.02118
 20
-1.05086
 11
6.03694
 21
-0.956146
  0
LINE
  8
0
 10
6.03694
 20
-0.956146
 11
6.05121
 21
-0.861206
  0
LINE
  8
0
 10
6.05121
 20
-0.861206
 11
6.05313
 21
-0.846924
  0
LINE
  8
0
 10
6.05313
 20
-0.846924
 11
6.01601
 21
-0.734741
  0
LINE
  8
0
 10
6.01601
 20
-0.734741
 11
5.9227
 21
-0.678375
  0
LINE
  8
0
 10
5.9227
 20
-0.678375
 11
5.8148
 21
-0.656052
  0
LINE
  8
0
 10
5.8148
 20
-0.656052
 11
5.71016
 21
-0.620544
  0
LINE
  8
0
 10
5.71016
 20
-0.620544
 11
5.60947
 21
-0.572357
  0
LINE
  8
0
 10
5.60947
 20
-0.572357
 11
5.51347
 21
-0.511993
  0
LINE
  8
0
 10
5.51347
 20
-0.511993
 11
5.41631
 21
-0.406158
  0
LINE
  8
0
 10
5.41631
 20
-0.406158
 11
5.34595
 21
-0.281647
  0
LINE
  8
0
 10
5.34595
 20
-0.281647
 11
5.30319
 21
-0.144287
  0
LINE
  8
0
 10
5.30319
 20
-0.144287
 11
5.28876
 21
0
  0
LINE
  8
0
 10
5.28876
 20
0
 11
5.30319
 21
0.144287
  0
LINE
  8
0
 10
5.30319
 20
0.144287
 11
5.34595
 21
0.281647
  0
LINE
  8
0
 10
5.34595
 20
0.281647
 11
5.41631
 21
0.406158
  0
LINE
  8
0
 10
5.41631
 20
0.406158
 11
5.51347
 21
0.511993
  0
LINE
  8
0
 10
5.51347
 20
0.511993
 11
5.60947
 21
0.572189
  0
LINE
  8
0
 10
5.60947
 20
0.572189
 11
5.71016
 21
0.620392
  0
LINE
  8
0
 10
5.71016
 20
0.620392
 11
5.8148
 21
0.655991
  0
LINE
  8
0
 10
5.8148
 20
0.655991
 11
5.9227
 21
0.678375
  0
LINE
  8
0
 10
5.9227
 20
0.678375
 11
6.01601
 21
0.734589
  0
LINE
  8
0
 10
6.01601
 20
0.734589
 11
6.05313
 21
0.846924
  0
LINE
  8
0
 10
6.05313
 20
0.846924
 11
6.05121
 21
0.861206
  0
LINE
  8
0
 10
6.05121
 20
0.861206
 11
6.03694
 21
0.956146
  0
LINE
  8
0
 10
6.03694
 20
0.956146
 11
6.02118
 21
1.05086
  0
LINE
  8
0
 10
6.02118
 20
1.05086
 11
6.01859
 21
1.06503
  0
LINE
  8
0
 10
6.01859
 20
1.06503
 11
5.94861
 21
1.16026
  0
LINE
  8
0
 10
5.94861
 20
1.16026
 11
5.84245
 21
1.18503
  0
LINE
  8
0
 10
5.84245
 20
1.18503
 11
5.73294
 21
1.17293
  0
LINE
  8
0
 10
5.73294
 20
1.17293
 11
5.62244
 21
1.17435
  0
LINE
  8
0
 10
5.62244
 20
1.17435
 11
5.51178
 21
1.18906
  0
LINE
  8
0
 10
5.51178
 20
1.18906
 11
5.40184
 21
1.21681
  0
LINE
  8
0
 10
5.40184
 20
1.21681
 11
5.27672
 21
1.28743
  0
LINE
  8
0
 10
5.27672
 20
1.28743
 11
5.17133
 21
1.38411
  0
LINE
  8
0
 10
5.17133
 20
1.38411
 11
5.08823
 21
1.50154
  0
LINE
  8
0
 10
5.08823
 20
1.50154
 11
5.02991
 21
1.63431
  0
LINE
  8
0
 10
5.02991
 20
1.63431
 11
4.99904
 21
1.776
  0
LINE
  8
0
 10
4.99904
 20
1.776
 11
4.99725
 21
1.91985
  0
LINE
  8
0
 10
4.99725
 20
1.91985
 11
5.0257
 21
2.06001
  0
LINE
  8
0
 10
5.0257
 20
2.06001
 11
5.0854
 21
2.19069
  0
LINE
  8
0
 10
5.0854
 20
2.19069
 11
5.1581
 21
2.2776
  0
LINE
  8
0
 10
5.1581
 20
2.2776
 11
5.23897
 21
2.35457
  0
LINE
  8
0
 10
5.23897
 20
2.35457
 11
5.32748
 21
2.42076
  0
LINE
  8
0
 10
5.32748
 20
2.42076
 11
5.42319
 21
2.4754
  0
LINE
  8
0
 10
5.42319
 20
2.4754
 11
5.49455
 21
2.55769
  0
LINE
  8
0
 10
5.49455
 20
2.55769
 11
5.49515
 21
2.67599
  0
LINE
  8
0
 10
5.49515
 20
2.67599
 11
5.48891
 21
2.68898
  0
LINE
  8
0
 10
5.48891
 20
2.68898
 11
5.446
 21
2.77487
  0
LINE
  8
0
 10
5.446
 20
2.77487
 11
5.40175
 21
2.86008
  0
LINE
  8
0
 10
5.40175
 20
2.86008
 11
5.3949
 21
2.87276
  0
LINE
  8
0
 10
5.3949
 20
2.87276
 11
5.29892
 21
2.9417
  0
LINE
  8
0
 10
5.29892
 20
2.9417
 11
5.19031
 21
2.93243
  0
LINE
  8
0
 10
5.19031
 20
2.93243
 11
5.08989
 21
2.88708
  0
LINE
  8
0
 10
5.08989
 20
2.88708
 11
4.98436
 21
2.85431
  0
LINE
  8
0
 10
4.98436
 20
2.85431
 11
4.87457
 21
2.83411
  0
LINE
  8
0
 10
4.87457
 20
2.83411
 11
4.76144
 21
2.82651
  0
LINE
  8
0
 10
4.76144
 20
2.82651
 11
4.62062
 21
2.85503
  0
LINE
  8
0
 10
4.62062
 20
2.85503
 11
4.49051
 21
2.9144
  0
LINE
  8
0
 10
4.49051
 20
2.9144
 11
4.37518
 21
3.0004
  0
LINE
  8
0
 10
4.37518
 20
3.0004
 11
4.27869
 21
3.10864
  0
LINE
  8
0
 10
4.27869
 20
3.10864
 11
4.20555
 21
3.23387
  0
LINE
  8
0
 10
4.20555
 20
3.23387
 11
4.15941
 21
3.37012
  0
LINE
  8
0
 10
4.15941
 20
3.37012
 11
4.14314
 21
3.51222
  0
LINE
  8
0
 10
4.14314
 20
3.51222
 11
4.15955
 21
3.65495
  0
LINE
  8
0
 10
4.15955
 20
3.65495
 11
4.20183
 21
3.76007
  0
LINE
  8
0
 10
4.20183
 20
3.76007
 11
4.25496
 21
3.85825
  0
LINE
  8
0
 10
4.25496
 20
3.85825
 11
4.31868
 21
3.94856
  0
LINE
  8
0
 10
4.31868
 20
3.94856
 11
4.39281
 21
4.03011
  0
LINE
  8
0
 10
4.39281
 20
4.03011
 11
4.43526
 21
4.13042
  0
LINE
  8
0
 10
4.43526
 20
4.13042
 11
4.39926
 21
4.24312
  0
LINE
  8
0
 10
4.39926
 20
4.24312
 11
4.38933
 21
4.25356
  0
LINE
  8
0
 10
4.38933
 20
4.25356
 11
4.32198
 21
4.32198
  0
LINE
  8
0
 10
4.32198
 20
4.32198
 11
4.25356
 21
4.38933
  0
LINE
  8
0
 10
4.25356
 20
4.38933
 11
4.24312
 21
4.39926
  0
LINE
  8
0
 10
4.24312
 20
4.39926
 11
4.13054
 21
4.43518
  0
LINE
  8
0
 10
4.13054
 20
4.43518
 11
4.03011
 21
4.39281
  0
LINE
  8
0
 10
4.03011
 20
4.39281
 11
3.94861
 21
4.31865
  0
LINE
  8
0
 10
3.94861
 20
4.31865
 11
3.85838
 21
4.25487
  0
LINE
  8
0
 10
3.85838
 20
4.25487
 11
3.76021
 21
4.20172
  0
LINE
  8
0
 10
3.76021
 20
4.20172
 11
3.65495
 21
4.15955
  0
LINE
  8
0
 10
3.65495
 20
4.15955
 11
3.51222
 21
4.14314
  0
LINE
  8
0
 10
3.51222
 20
4.14314
 11
3.37012
 21
4.15941
  0
LINE
  8
0
 10
3.37012
 20
4.15941
 11
3.23387
 21
4.20555
  0
LINE
  8
0
 10
3.23387
 20
4.20555
 11
3.10864
 21
4.27869
  0
LINE
  8
0
 10
3.10864
 20
4.27869
 11
3.0004
 21
4.37518
  0
LINE
  8
0
 10
3.0004
 20
4.37518
 11
2.9144
 21
4.49051
  0
LINE
  8
0
 10
2.9144
 20
4.49051
 11
2.85503
 21
4.62062
  0
LINE
  8
0
 10
2.85503
 20
4.62062
 11
2.82651
 21
4.76144
  0
LINE
  8
0
 10
2.82651
 20
4.76144
 11
2.83424
 21
4.87448
  0
LINE
  8
0
 10
2.83424
 20
4.87448
 11
2.85443
 21
4.98427
  0
LINE
  8
0
 10
2.85443
 20
4.98427
 11
2.88713
 21
5.08986
  0
LINE
  8
0
 10
2.88713
 20
5.08986
 11
2.93243
 21
5.19031
  0
LINE
  8
0
 10
2.93243
 20
5.19031
 11
2.9418
 21
5.29884
  0
LINE
  8
0
 10
2.9418
 20
5.29884
 11
2.87276
 21
5.3949
  0
LINE
  8
0
 10
2.87276
 20
5.3949
 11
2.86008
 21
5.40175
  0
LINE
  8
0
 10
2.86008
 20
5.40175
 11
2.77487
 21
5.446
  0
LINE
  8
0
 10
2.77487
 20
5.446
 11
2.68898
 21
5.48891
  0
LINE
  8
0
 10
2.68898
 20
5.48891
 11
2.67599
 21
5.49515
  0
LINE
  8
0
 10
2.67599
 20
5.49515
 11
2.55782
 21
5.49451
  0
LINE
  8
0
 10
2.55782
 20
5.49451
 11
2.4754
 21
5.42319
  0
LINE
  8
0
 10
2.4754
 20
5.42319
 11
2.42081
 21
5.32747
  0
LINE
  8
0
 10
2.42081
 20
5.32747
 11
2.35471
 21
5.23892
  0
LINE
  8
0
 10
2.35471
 20
5.23892
 11
2.27777
 21
5.15805
  0
LINE
  8
0
 10
2.27777
 20
5.15805
 11
2.19069
 21
5.0854
  0
LINE
  8
0
 10
2.19069
 20
5.0854
 11
2.06001
 21
5.0257
  0
LINE
  8
0
 10
2.06001
 20
5.0257
 11
1.91985
 21
4.99725
  0
LINE
  8
0
 10
1.91985
 20
4.99725
 11
1.776
 21
4.99904
  0
LINE
  8
0
 10
1.776
 20
4.99904
 11
1.63431
 21
5.02991
  0
LINE
  8
0
 10
1.63431
 20
5.02991
 11
1.50154
 21
5.08823
  0
LINE
  8
0
 10
1.50154
 20
5.08823
 11
1.38411
 21
5.17133
  0
LINE
  8
0
 10
1.38411
 20
5.17133
 11
1.28743
 21
5.27672
  0
LINE
  8
0
 10
1.28743
 20
5.27672
 11
1.21681
 21
5.40184
  0
LINE
  8
0
 10
1.21681
 20
5.40184
 11
1.18922
 21
5.51173
  0
LINE
  8
0
 10
1.18922
 20
5.51173
 11
1.1745
 21
5.62239
  0
LINE
  8
0
 10
1.1745
 20
5.62239
 11
1.17297
 21
5.73293
  0
LINE
  8
0
 10
1.17297
 20
5.73293
 11
1.18503
 21
5.84245
  0
LINE
  8
0
 10
1.18503
 20
5.84245
 11
1.1604
 21
5.94856
  0
LINE
  8
0
 10
1.1604
 20
5.94856
 11
1.06503
 21
6.01859
  0
LINE
  8
0
 10
1.06503
 20
6.01859
 11
1.05086
 21
6.02118
  0
LINE
  8
0
 10
1.05086
 20
6.02118
 11
0.956146
 21
6.03694
  0
LINE
  8
0
 10
0.956146
 20
6.03694
 11
0.861206
 21
6.05121
  0
LINE
  8
0
 10
0.861206
 20
6.05121
 11
0.846924
 21
6.05313
  0
LINE
  8
0
 10
0.846924
 20
6.05313
 11
0.734741
 21
6.01601
  0
LINE
  8
0
 10
0.734741
 20
6.01601
 11
0.678375
 21
5.9227
  0
LINE
  8
0
 10
0.678375
 20
5.9227
 11
0.656052
 21
5.8148
  0
LINE
  8
0
 10
0.656052
 20
5.8148
 11
0.620544
 21
5.71016
  0
LINE
  8
0
 10
0.620544
 20
5.71016
 11
0.572357
 21
5.60947
  0
LINE
  8
0
 10
0.572357
 20
5.60947
 11
0.511993
 21
5.51347
  0
LINE
  8
0
 10
0.511993
 20
5.51347
 11
0.406158
 21
5.41631
  0
LINE
  8
0
 10
0.406158
 20
5.41631
 11
0.281647
 21
5.34595
  0
LINE
  8
0
 10
0.281647
 20
5.34595
 11
0.144287
 21
5.30319
  0
LINE
  8
0
 10
0.144287
 20
5.30319
 11
0
 21
5.28876
  0
LINE
  8
0
 10
0
 20
5.28876
 11
-0.144287
 21
5.30319
  0
LINE
  8
0
 10
-0.144287
 20
5.30319
 11
-0.281647
 21
5.34595
  0
LINE
  8
0
 10
-0.281647
 20
5.34595
 11
-0.406158
 21
5.41631
  0
LINE
  8
0
 10
-0.406158
 20
5.41631
 11
-0.511993
 21
5.51347
  0
LINE
  8
0
 10
-0.511993
 20
5.51347
 11
-0.572189
 21
5.60947
  0
LINE
  8
0
 10
-0.572189
 20
5.60947
 11
-0.620392
 21
5.71016
  0
LINE
  8
0
 10
-0.620392
 20
5.71016
 11
-0.655991
 21
5.8148
  0
LINE
  8
0
 10
-0.655991
 20
5.8148
 11
-0.678375
 21
5.9227
  0
LINE
  8
0
 10
-0.678375
 20
5.9227
 11
-0.734589
 21
6.01601
  0
LINE
  8
0
 10
-0.734589
 20
6.01601
 11
-0.846924
 21
6.05313
  0
LINE
  8
0
 10
-0.846924
 20
6.05313
 11
-0.861206
 21
6.05121
  0
LINE
  8
0
 10
-0.861206
 20
6.05121
 11
-0.956146
 21
6.03694
  0
LINE
  8
0
 10
-0.956146
 20
6.03694
 11
-1.05086
 21
6.02118
  0
LINE
  8
0
 10
-1.05086
 20
6.02118
 11
-1.06503
 21
6.01859
  0
LINE
  8
0
 10
-1.06503
 20
6.01859
 11
-1.16026
 21
5.94861
  0
LINE
  8
0
 10
-1.16026
 20
5.94861
 11
-1.18503
 21
5.84245
  0
LINE
  8
0
 10
-1.18503
 20
5.84245
 11
-1.17293
 21
5.73294
  0
LINE
  8
0
 10
-1.17293
 20
5.73294
 11
-1.17435
 21
5.62244
  0
LINE
  8
0
 10
-1.17435
 20
5.62244
 11
-1.18906
 21
5.51178
  0
LINE
  8
0
 10
-1.18906
 20
5.51178
 11
-1.21681
 21
5.40184
  0
LINE
  8
0
 10
-1.21681
 20
5.40184
 11
-1.28743
 21
5.27672
  0
LINE
  8
0
 10
-1.28743
 20
5.27672
 11
-1.38411
 21
5.17133
  0
LINE
  8
0
 10
-1.38411
 20
5.17133
 11
-1.50154
 21
5.08823
  0
LINE
  8
0
 10
-1.50154
 20
5.08823
 11
-1.63431
 21
5.02991
  0
LINE
  8
0
 10
-1.63431
 20
5.02991
 11
-1.776
 21
4.99904
  0
LINE
  8
0
 10
-1.776
 20
4.99904
 11
-1.91985
 21
4.99725
  0
LINE
  8
0
 10
-1.91985
 20
4.99725
 11
-2.06001
 21
5.0257
  0
LINE
  8
0
 10
-2.06001
 20
5.0257
 11
-2.19069
 21
5.0854
  0
LINE
  8
0
 10
-2.19069
 20
5.0854
 11
-2.2776
 21
5.1581
  0
LINE
  8
0
 10
-2.2776
 20
5.1581
 11
-2.35457
 21
5.23897
  0
LINE
  8
0
 10
-2.35457
 20
5.23897
 11
-2.42076
 21
5.32748
  0
LINE
  8
0
 10
-2.42076
 20
5.32748
 11
-2.4754
 21
5.42319
  0
LINE
  8
0
 10
-2.4754
 20
5.42319
 11
-2.55769
 21
5.49455
  0
LINE
  8
0
 10
-2.55769
 20
5.49455
 11
-2.67599
 21
5.49515
  0
LINE
  8
0
 10
-2.67599
 20
5.49515
 11
-2.68898
 21
5.48891
  0
LINE
  8
0
 10
-2.68898
 20
5.48891
 11
-2.77487
 21
5.446
  0
LINE
  8
0
 10
-2.77487
 20
5.446
 11
-2.86008
 21
5.40175
  0
LINE
  8
0
 10
-2.86008
 20
5.40175
 11
-2.87276
 21
5.3949
  0
LINE
  8
0
 10
-2.87276
 20
5.3949
 11
-2.9417
 21
5.29892
  0
LINE
  8
0
 10
-2.9417
 20
5.29892
 11
-2.93243
 21
5.19031
  0
LINE
  8
0
 10
-2.93243
 20
5.19031
 11
-2.88708
 21
5.08989
  0
LINE
  8
0
 10
-2.88708
 20
5.08989
 11
-2.85431
 21
4.98436
  0
LINE
  8
0
 10
-2.85431
 20
4.98436
 11
-2.83411
 21
4.87457
  0
LINE
  8
0
 10
-2.83411
 20
4.87457
 11
-2.82651
 21
4.76144
  0
LINE
  8
0
 10
-2.82651
 20
4.76144
 11
-2.85503
 21
4.62062
  0
LINE
  8
0
 10
-2.85503
 20
4.62062
 11
-2.9144
 21
4.49051
  0
LINE
  8
0
 10
-2.9144
 20
4.49051
 11
-3.0004
 21
4.37518
  0
LINE
  8
0
 10
-3.0004
 20
4.37518
 11
-3.10864
 21
4.27869
  0
LINE
  8
0
 10
-3.10864
 20
4.27869
 11
-3.23387
 21
4.20555
  0
LINE
  8
0
 10
-3.23387
 20
4.20555
 11
-3.37012
 21
4.15941
  0
LINE
  8
0
 10
-3.37012
 20
4.15941
 11
-3.51222
 21
4.14314
  0
LINE
  8
0
 10
-3.51222
 20
4.14314
 11
-3.65495
 21
4.15955
  0
LINE
  8
0
 10
-3.65495
 20
4.15955
 11
-3.76007
 21
4.20183
  0
LINE
  8
0
 10
-3.76007
 20
4.20183
 11
-3.85825
 21
4.25496
  0
LINE
  8
0
 10
-3.85825
 20
4.25496
 11
-3.94856
 21
4.31868
  0
LINE
  8
0
 10
-3.94856
 20
4.31868
 11
-4.03011
 21
4.39281
  0
LINE
  8
0
 10
-4.03011
 20
4.39281
 11
-4.13042
 21
4.43526
  0
LINE
  8
0
 10
-4.13042
 20
4.43526
 11
-4.24312
 21
4.39926
  0
LINE
  8
0
 10
-4.24312
 20
4.39926
 11
-4.25356
 21
4.38933
  0
LINE
  8
0
 10
-4.25356
 20
4.38933
 11
-4.32198
 21
4.32198
  0
LINE
  8
0
 10
-4.32198
 20
4.32198
 11
-4.38933
 21
4.25356
  0
LINE
  8
0
 10
-4.38933
 20
4.25356
 11
-4.39926
 21
4.24312
  0
LINE
  8
0
 10
-4.39926
 20
4.24312
 11
-4.43518
 21
4.13054
  0
LINE
  8
0
 10
-4.43518
 20
4.13054
 11
-4.39281
 21
4.03011
  0
LINE
  8
0
 10
-4.39281
 20
4.03011
 11
-4.31865
 21
3.94861
  0
LINE
  8
0
 10
-4.31865
 20
3.94861
 11
-4.25487
 21
3.85838
  0
LINE
  8
0
 10
-4.25487
 20
3.85838
 11
-4.20172
 21
3.76021
  0
LINE
  8
0
 10
-4.20172
 20
3.76021
 11
-4.15955
 21
3.65495
  0
LINE
  8
0
 10
-4.15955
 20
3.65495
 11
-4.14314
 21
3.51222
  0
LINE
  8
0
 10
-4.14314
 20
3.51222
 11
-4.15941
 21
3.37012
  0
LINE
  8
0
 10
-4.15941
 20
3.37012
 11
-4.20555
 21
3.23387
  0
LINE
  8
0
 10
-4.20555
 20
3.23387
 11
-4.27869
 21
3.10864
  0
LINE
  8
0
 10
-4.27869
 20
3.10864
 11
-4.37518
 21
3.0004
  0
LINE
  8
0
 10
-4.37518
 20
3.0004
 11
-4.49051
 21
2.9144
  0
LINE
  8
0
 10
-4.49051
 20
2.9144
 11
-4.62062
 21
2.85503
  0
LINE
  8
0
 10
-4.62062
 20
2.85503
 11
-4.76144
 21
2.82651
  0
LINE
  8
0
 10
-4.76144
 20
2.82651
 11
-4.87448
 21
2.83424
  0
LINE
  8
0
 10
-4.87448
 20
2.83424
 11
-4.98427
 21
2.85443
  0
LINE
  8
0
 10
-4.98427
 20
2.85443
 11
-5.08986
 21
2.88713
  0
LINE
  8
0
 10
-5.08986
 20
2.88713
 11
-5.19031
 21
2.93243
  0
LINE
  8
0
 10
-5.19031
 20
2.93243
 11
-5.29884
 21
2.9418
  0
LINE
  8
0
 10
-5.29884
 20
2.9418
 11
-5.3949
 21
2.87276
  0
LINE
  8
0
 10
-5.3949
 20
2.87276
 11
-5.40175
 21
2.86008
  0
LINE
  8
0
 10
-5.40175
 20
2.86008
 11
-5.446
 21
2.77487
  0
LINE
  8
0
 10
-5.446
 20
2.77487
 11
-5.48891
 21
2.68898
  0
LINE
  8
0
 10
-5.48891
 20
2.68898
 11
-5.49515
 21
2.67599
  0
LINE
  8
0
 10
-5.49515
 20
2.67599
 11
-5.49451
 21
2.55782
  0
LINE
  8
0
 10
-5.49451
 20
2.55782
 11
-5.42319
 21
2.4754
  0
LINE
  8
0
 10
-5.42319
 20
2.4754
 11
-5.32747
 21
2.42081
  0
LINE
  8
0
 10
-5.32747
 20
2.42081
 11
-5.23892
 21
2.35471
  0
LINE
  8
0
 10
-5.23892
 20
2.35471
 11
-5.15805
 21
2.27777
  0
LINE
  8
0
 10
-5.15805
 20
2.27777
 11
-5.0854
 21
2.19069
  0
LINE
  8
0
 10
-5.0854
 20
2.19069
 11
-5.0257
 21
2.06001
  0
LINE
  8
0
 10
-5.0257
 20
2.06001
 11
-4.99725
 21
1.91985
  0
LINE
  8
0
 10
-4.99725
 20
1.91985
 11
-4.99904
 21
1.776
  0
LINE
  8
0
 10
-4.99904
 20
1.776
 11
-5.02991
 21
1.63431
  0
LINE
  8
0
 10
-5.02991
 20
1.63431
 11
-5.08823
 21
1.50154
  0
LINE
  8
0
 10
-5.08823
 20
1.50154
 11
-5.17133
 21
1.38411
  0
LINE
  8
0
 10
-5.17133
 20
1.38411
 11
-5.27672
 21
1.28743
  0
LINE
  8
0
 10
-5.27672
 20
1.28743
 11
-5.40184
 21
1.21681
  0
LINE
  8
0
 10
-5.40184
 20
1.21681
 11
-5.51173
 21
1.18922
  0
LINE
  8
0
 10
-5.51173
 20
1.18922
 11
-5.62239
 21
1.1745
  0
LINE
  8
0
 10
-5.62239
 20
1.1745
 11
-5.73293
 21
1.17297
  0
LINE
  8
0
 10
-5.73293
 20
1.17297
 11
-5.84245
 21
1.18503
  0
LINE
  8
0
 10
-5.84245
 20
1.18503
 11
-5.94856
 21
1.1604
  0
LINE
  8
0
 10
-5.94856
 20
1.1604
 11
-6.01859
 21
1.06503
  0
LINE
  8
0
 10
-6.01859
 20
1.06503
 11
-6.02118
 21
1.05086
  0
LINE
  8
0
 10
-6.02118
 20
1.05086
 11
-6.03694
 21
0.956146
  0
LINE
  8
0
 10
-6.03694
 20
0.956146
 11
-6.05121
 21
0.861206
  0
LINE
  8
0
 10
-6.05121
 20
0.861206
 11
-6.05313
 21
0.846924
  0
LINE
  8
0
 10
-6.05313
 20
0.846924
 11
-6.01601
 21
0.734741
  0
LINE
  8
0
 10
-6.01601
 20
0.734741
 11
-5.9227
 21
0.678375
  0
LINE
  8
0
 10
-5.9227
 20
0.678375
 11
-5.8148
 21
0.656052
  0
LINE
  8
0
 10
-5.8148
 20
0.656052
 11
-5.71016
 21
0.620544
  0
LINE
  8
0
 10
-5.71016
 20
0.620544
 11
-5.60947
 21
0.572357
  0
LINE
  8
0
 10
-5.60947
 20
0.572357
 11
-5.51347
 21
0.511993
  0
LINE
  8
0
 10
-5.51347
 20
0.511993
 11
-5.41631
 21
0.406158
  0
LINE
  8
0
 10
-5.41631
 20
0.406158
 11
-5.34595
 21
0.281647
  0
LINE
  8
0
 10
-5.34595
 20
0.281647
 11
-5.30319
 21
0.144287
  0
LINE
  8
0
 10
-5.30319
 20
0.144287
 11
-5.28876
 21
0
  0
LINE
  8
0
 10
-5.28876
 20
0
 11
-5.30319
 21
-0.144287
  0
LINE
  8
0
 10
-5.30319
 20
-0.144287
 11
-5.34595
 21
-0.281647
  0
LINE
  8
0
 10
-5.34595
 20
-0.281647
 11
-5.41631
 21
-0.406158
  0
LINE
  8
0
 10
-5.41631
 20
-0.406158
 11
-5.51347
 21
-0.511993
  0
LINE
  8
0
 10
-5.51347
 20
-0.511993
 11
-5.60947
 21
-0.572189
  0
LINE
  8
0
 10
-5.60947
 20
-0.572189
 11
-5.71016
 21
-0.620392
  0
LINE
  8
0
 10
-5.71016
 20
-0.620392
 11
-5.8148
 21
-0.655991
  0
LINE
  8
0
 10
-5.8148
 20
-0.655991
 11
-5.9227
 21
-0.678375
  0
LINE
  8
0
 10
-5.9227
 20
-0.678375
 11
-6.01601
 21
-0.734589
  0
LINE
  8
0
 10
-6.01601
 20
-0.734589
 11
-6.05313
 21
-0.846924
  0
LINE
  8
0
 10
-6.05313
 20
-0.846924
 11
-6.05121
 21
-0.861206
  0
LINE
  8
0
 10
-6.05121
 20
-0.861206
 11
-6.03694
 21
-0.956146
  0
LINE
  8
0
 10
-6.03694
 20
-0.956146
 11
-6.02118
 21
-1.05086
  0
LINE
  8
0
 10
-6.02118
 20
-1.05086
 11
-6.01859
 21
-1.06503
  0
LINE
  8
0
 10
-6.01859
 20
-1.06503
 11
-5.94861
 21
-1.16026
  0
LINE
  8
0
 10
-5.94861
 20
-1.16026
 11
-5.84245
 21
-1.18503
  0
LINE
  8
0
 10
-5.84245
 20
-1.18503
 11
-5.73294
 21
-1.17293
  0
LINE
  8
0
 10
-5.73294
 20
-1.17293
 11
-5.62244
 21
-1.17435
  0
LINE
  8
0
 10
-5.62244
 20
-1.17435
 11
-5.51178
 21
-1.18906
  0
LINE
  8
0
 10
-5.51178
 20
-1.18906
 11
-5.40184
 21
-1.21681
  0
LINE
  8
0
 10
-5.40184
 20
-1.21681
 11
-5.27672
 21
-1.28743
  0
LINE
  8
0
 10
-5.27672
 20
-1.28743
 11
-5.17133
 21
-1.38411
  0
LINE
  8
0
 10
-5.17133
 20
-1.38411
 11
-5.08823
 21
-1.50154
  0
LINE
  8
0
 10
-5.08823
 20
-1.50154
 11
-5.02991
 21
-1.63431
  0
LINE
  8
0
 10
-5.02991
 20
-1.63431
 11
-4.99904
 21
-1.776
  0
LINE
  8
0
 10
-4.99904
 20
-1.776
 11
-4.99725
 21
-1.91985
  0
LINE
  8
0
 10
-4.99725
 20
-1.91985
 11
-5.0257
 21
-2.06001
  0
LINE
  8
0
 10
-5.0257
 20
-2.06001
 11
-5.0854
 21
-2.19069
  0
LINE
  8
0
 10
-5.0854
 20
-2.19069
 11
-5.1581
 21
-2.2776
  0
LINE
  8
0
 10
-5.1581
 20
-2.2776
 11
-5.23897
 21
-2.35457
  0
LINE
  8
0
 10
-5.23897
 20
-2.35457
 11
-5.32748
 21
-2.42076
  0
LINE
  8
0
 10
-5.32748
 20
-2.42076
 11
-5.42319
 21
-2.4754
  0
LINE
  8
0
 10
-5.42319
 20
-2.4754
 11
-5.49455
 21
-2.55769
  0
LINE
  8
0
 10
-5.49455
 20
-2.55769
 11
-5.49515
 21
-2.67599
  0
LINE
  8
0
 10
-5.49515
 20
-2.67599
 11
-5.48891
 21
-2.68898
  0
LINE
  8
0
 10
-5.48891
 20
-2.68898
 11
-5.446
 21
-2.77487
  0
LINE
  8
0
 10
-5.446
 20
-2.77487
 11
-5.40175
 21
-2.86008
  0
LINE
  8
0
 10
-5.40175
 20
-2.86008
 11
-5.3949
 21
-2.87276
  0
LINE
  8
0
 10
-5.3949
 20
-2.87276
 11
-5.29892
 21
-2.9417
  0
LINE
  8
0
 10
-5.29892
 20
-2.9417
 11
-5.19031
 21
-2.93243
  0
LINE
  8
0
 10
-5.19031
 20
-2.93243
 11
-5.08989
 21
-2.88708
  0
LINE
  8
0
 10
-5.08989
 20
-2.88708
 11
-4.98436
 21
-2.85431
  0
LINE
  8
0
 10
-4.98436
 20
-2.85431
 11
-4.87457
 21
-2.83411
  0
LINE
  8
0
 10
-4.87457
 20
-2.83411
 11
-4.76144
 21
-2.82651
  0
LINE
  8
0
 10
-4.76144
 20
-2.82651
 11
-4.62062
 21
-2.85503
  0
LINE
  8
0
 10
-4.62062
 20
-2.85503
 11
-4.49051
 21
-2.9144
  0
LINE
  8
0
 10
-4.49051
 20
-2.9144
 11
-4.37518
 21
-3.0004
  0
LINE
  8
0
 10
-4.37518
 20
-3.0004
 11
-4.27869
 21
-3.10864
  0
LINE
  8
0
 10
-4.27869
 20
-3.10864
 11
-4.20555
 21
-3.23387
  0
LINE
  8
0
 10
-4.20555
 20
-3.23387
 11
-4.15941
 21
-3.37012
  0
LINE
  8
0
 10
-4.15941
 20
-3.37012
 11
-4.14314
 21
-3.51222
  0
LINE
  8
0
 10
-4.14314
 20
-3.51222
 11
-4.15955
 21
-3.65495
  0
LINE
  8
0
 10
-4.15955
 20
-3.65495
 11
-4.20183
 21
-3.76007
  0
LINE
  8
0
 10
-4.20183
 20
-3.76007
 11
-4.25496
 21
-3.85825
  0
LINE
  8
0
 10
-4.25496
 20
-3.85825
 11
-4.31868
 21
-3.94856
  0
LINE
  8
0
 10
-4.31868
 20
-3.94856
 11
-4.39281
 21
-4.03011
  0
LINE
  8
0
 10
-4.39281
 20
-4.03011
 11
-4.43526
 21
-4.13042
  0
LINE
  8
0
 10
-4.43526
 20
-4.13042
 11
-4.39926
 21
-4.24312
  0
LINE
  8
0
 10
-4.39926
 20
-4.24312
 11
-4.38933
 21
-4.25356
  0
LINE
  8
0
 10
-4.38933
 20
-4.25356
 11
-4.32198
 21
-4.32198
  0
LINE
  8
0
 10
-4.32198
 20
-4.32198
 11
-4.25356
 21
-4.38933
  0
LINE
  8
0
 10
-4.25356
 20
-4.38933
 11
-4.24312
 21
-4.39926
  0
LINE
  8
0
 10
-4.24312
 20
-4.39926
 11
-4.13054
 21
-4.43518
  0
LINE
  8
0
 10
-4.13054
 20
-4.43518
 11
-4.03011
 21
-4.39281
  0
LINE
  8
0
 10
-4.03011
 20
-4.39281
 11
-3.94861
 21
-4.31865
  0
LINE
  8
0
 10
-3.94861
 20
-4.31865
 11
-3.85838
 21
-4.25487
  0
LINE
  8
0
 10
-3.85838
 20
-4.25487
 11
-3.76021
 21
-4.20172
  0
LINE
  8
0
 10
-3.76021
 20
-4.20172
 11
-3.65495
 21
-4.15955
  0
LINE
  8
0
 10
-3.65495
 20
-4.15955
 11
-3.51222
 21
-4.14314
  0
LINE
  8
0
 10
-3.51222
 20
-4.14314
 11
-3.37012
 21
-4.15941
  0
LINE
  8
0
 10
-3.37012
 20
-4.15941
 11
-3.23387
 21
-4.20555
  0
LINE
  8
0
 10
-3.23387
 20
-4.20555
 11
-3.10864
 21
-4.27869
  0
LINE
  8
0
 10
-3.10864
 20
-4.27869
 11
-3.0004
 21
-4.37518
  0
LINE
  8
0
 10
-3.0004
 20
-4.37518
 11
-2.9144
 21
-4.49051
  0
LINE
  8
0
 10
-2.9144
 20
-4.49051
 11
-2.85503
 21
-4.62062
  0
LINE
  8
0
 10
-2.85503
 20
-4.62062
 11
-2.82651
 21
-4.76144
  0
LINE
  8
0
 10
-2.82651
 20
-4.76144
 11
-2.83424
 21
-4.87448
  0
LINE
  8
0
 10
-2.83424
 20
-4.87448
 11
-2.85443
 21
-4.98427
  0
LINE
  8
0
 10
-2.85443
 20
-4.98427
 11
-2.88713
 21
-5.08986
  0
LINE
  8
0
 10
-2.88713
 20
-5.08986
 11
-2.93243
 21
-5.19031
  0
LINE
  8
0
 10
-2.93243
 20
-5.19031
 11
-2.9418
 21
-5.29884
  0
LINE
  8
0
 10
-2.9418
 20
-5.29884
 11
-2.87276
 21
-5.3949
  0
LINE
  8
0
 10
-2.87276
 20
-5.3949
 11
-2.86008
 21
-5.40175
  0
LINE
  8
0
 10
-2.86008
 20
-5.40175
 11
-2.77487
 21
-5.446
  0
LINE
  8
0
 10
-2.77487
 20
-5.446
 11
-2.68898
 21
-5.48891
  0
LINE
  8
0
 10
-2.68898
 20
-5.48891
 11
-2.67599
 21
-5.49515
  0
LINE
  8
0
 10
-2.67599
 20
-5.49515
 11
-2.55782
 21
-5.49451
  0
LINE
  8
0
 10
-2.55782
 20
-5.49451
 11
-2.4754
 21
-5.42319
  0
LINE
  8
0
 10
-2.4754
 20
-5.42319
 11
-2.42081
 21
-5.32747
  0
LINE
  8
0
 10
-2.42081
 20
-5.32747
 11
-2.35471
 21
-5.23892
  0
LINE
  8
0
 10
-2.35471
 20
-5.23892
 11
-2.27777
 21
-5.15805
  0
LINE
  8
0
 10
-2.27777
 20
-5.15805
 11
-2.19069
 21
-5.0854
  0
LINE
  8
0
 10
-2.19069
 20
-5.0854
 11
-2.06001
 21
-5.0257
  0
LINE
  8
0
 10
-2.06001
 20
-5.0257
 11
-1.91985
 21
-4.99725
  0
LINE
  8
0
 10
-1.91985
 20
-4.99725
 11
-1.776
 21
-4.99904
  0
LINE
  8
0
 10
-1.776
 20
-4.99904
 11
-1.63431
 21
-5.02991
  0
LINE
  8
0
 10
-1.63431
 20
-5.02991
 11
-1.50154
 21
-5.08823
  0
LINE
  8
0
 10
-1.50154
 20
-5.08823
 11
-1.38411
 21
-5.17133
  0
LINE
  8
0
 10
-1.38411
 20
-5.17133
 11
-1.28743
 21
-5.27672
  0
LINE
  8
0
 10
-1.28743
 20
-5.27672
 11
-1.21681
 21
-5.40184
  0
LINE
  8
0
 10
-1.21681
 20
-5.40184
 11
-1.18922
 21
-5.51173
  0
LINE
  8
0
 10
-1.18922
 20
-5.51173
 11
-1.1745
 21
-5.62239
  0
LINE
  8
0
 10
-1.1745
 20
-5.62239
 11
-1.17297
 21
-5.73293
  0
LINE
  8
0
 10
-1.17297
 20
-5.73293
 11
-1.18503
 21
-5.84245
  0
LINE
  8
0
 10
-1.18503
 20
-5.84245
 11
-1.1604
 21
-5.94856
  0
LINE
  8
0
 10
-1.1604
 20
-5.94856
 11
-1.06503
 21
-6.01859
  0
LINE
  8
0
 10
-1.06503
 20
-6.01859
 11
-1.05086
 21
-6.02118
  0
LINE
  8
0
 10
-1.05086
 20
-6.02118
 11
-0.956146
 21
-6.03694
  0
LINE
  8
0
 10
-0.956146
 20
-6.03694
 11
-0.861206
 21
-6.05121
  0
LINE
  8
0
 10
-0.861206
 20
-6.05121
 11
-0.846924
 21
-6.05313
  0
LINE
  8
0
 10
-0.846924
 20
-6.05313
 11
-0.734741
 21
-6.01601
  0
LINE
  8
0
 10
-0.734741
 20
-6.01601
 11
-0.678375
 21
-5.9227
  0
LINE
  8
0
 10
-0.678375
 20
-5.9227
 11
-0.656052
 21
-5.8148
  0
LINE
  8
0
 10
-0.656052
 20
-5.8148
 11
-0.620544
 21
-5.71016
  0
LINE
  8
0
 10
-0.620544
 20
-5.71016
 11
-0.572357
 21
-5.60947
  0
LINE
  8
0
 10
-0.572357
 20
-5.60947
 11
-0.511993
 21
-5.51347
  0
LINE
  8
0
 10
-0.511993
 20
-5.51347
 11
-0.406158
 21
-5.41631
  0
LINE
  8
0
 10
-0.406158
 20
-5.41631
 11
-0.281647
 21
-5.34595
  0
LINE
  8
0
 10
-0.281647
 20
-5.34595
 11
-0.144287
 21
-5.30319
  0
LINE
  8
0
 10
-0.144287
 20
-5.30319
 11
0
 21
-5.28876
  0
LINE
  8
0
 10
0
 20
-5.28876
 11
0.144287
 21
-5.30319
  0
LINE
  8
0
 10
0.144287
 20
-5.30319
 11
0.281647
 21
-5.34595
  0
LINE
  8
0
 10
0.281647
 20
-5.34595
 11
0.406158
 21
-5.41631
  0
LINE
  8
0
 10
0.406158
 20
-5.41631
 11
0.511993
 21
-5.51347
  0
LINE
  8
0
 10
0.511993
 20
-5.51347
 11
0.572189
 21
-5.60947
  0
LINE
  8
0
 10
0.572189
 20
-5.60947
 11
0.620392
 21
-5.71016
  0
LINE
  8
0
 10
0.620392
 20
-5.71016
 11
0.655991
 21
-5.8148
  0
LINE
  8
0
 10
0.655991
 20
-5.8148
 11
0.678375
 21
-5.9227
  0
LINE
  8
0
 10
0.678375
 20
-5.9227
 11
0.734589
 21
-6.01601
  0
LINE
  8
0
 10
0.734589
 20
-6.01601
 11
0.846924
 21
-6.05313
  0
LINE
  8
0
 10
0.846924
 20
-6.05313
 11
0.861206
 21
-6.05121
  0
LINE
  8
0
 10
-0.0999908
 20
0
 11
0
 21
0.0999908
  0
LINE
  8
0
 10
0
 20
0.0999908
 11
0.0999908
 21
0
  0
LINE
  8
0
 10
0.0999908
 20
0
 11
0
 21
-0.0999908
  0
LINE
  8
0
 10
0
 20
-0.0999908
 11
-0.0999908
 21
0
  0
ENDSEC
  0
SECTION
  2
OBJECTS
  0
DICTIONARY
  0
ENDSEC
  0
EOF
