<?xml version="1.0" standalone="no"?>
<!DOCTYPE svg PUBLIC "-//W3C//DTD SVG 1.1//EN" "http://www.w3.org/Graphics/SVG/1.1/DTD/svg11.dtd">
<svg width="50mm" height="50mm" viewBox="-25 -25 50 50" xmlns="http://www.w3.org/2000/svg" version="1.1">
<title>OpenSCAD Model</title>
<path d="
M 0.796783,23.7272 L 1.03659,23.3152 L 1.24734,22.9195 L 1.43065,22.5415 L 1.58817,22.1829 L 1.72162,21.845
 L 1.83282,21.5289 L 1.92363,21.236 L 1.99596,20.9672 L 2.05177,20.7235 L 2.09308,20.5057 L 2.12192,20.3145
 L 2.11813,20.2783 L 3.20244,20.1355 L 3.20815,20.1715 L 3.28549,20.3487 L 3.38176,20.5484 L 3.49875,20.7693
 L 3.63818,21.0102 L 3.80171,21.2697 L 3.99092,21.5462 L 4.20731,21.8381 L 4.45227,22.1437 L 4.72714,22.4613
 L 5.03314,22.7891 L 5.37141,23.125 L 5.74298,23.4671 L 6.75996,23.1946 L 6.91069,22.7125 L 7.03569,22.2525
 L 7.13683,21.8157 L 7.21608,21.4032 L 7.27541,21.016 L 7.31683,20.655 L 7.34245,20.321 L 7.35435,20.0145
 L 7.35464,19.7361 L 7.34547,19.4863 L 7.32901,19.2652 L 7.30739,19.0731 L 7.29437,19.0391 L 8.30478,18.6206
 L 8.3196,18.6538 L 8.44017,18.805 L 8.58484,18.9729 L 8.75504,19.1561 L 8.95207,19.3527 L 9.17717,19.561
 L 9.4315,19.7791 L 9.71606,20.0051 L 10.0318,20.2369 L 10.3795,20.4725 L 10.7599,20.7099 L 11.1736,20.9468
 L 11.621,21.181 L 12.5328,20.6546 L 12.5536,20.15 L 12.5553,19.6733 L 12.54,19.2252 L 12.5098,18.8062
 L 12.4668,18.4169 L 12.4134,18.0575 L 12.3517,17.7282 L 12.2839,17.4291 L 12.2121,17.1601 L 12.1386,16.9212
 L 12.0655,16.7119 L 11.9949,16.5319 L 11.9735,16.5024 L 12.8412,15.8367 L 12.8641,15.8649 L 13.0197,15.9797
 L 13.2029,16.1045 L 13.4147,16.2374 L 13.6559,16.3763 L 13.9272,16.5192 L 14.2293,16.6641 L 14.5627,16.8087
 L 14.9277,16.9509 L 15.3245,17.0885 L 15.7534,17.2193 L 16.2143,17.3411 L 16.7071,17.4516 L 17.4516,16.7071
 L 17.3411,16.2143 L 17.2193,15.7534 L 17.0885,15.3245 L 16.9509,14.9277 L 16.8087,14.5627 L 16.6641,14.2293
 L 16.5192,13.9272 L 16.3763,13.6559 L 16.2374,13.4147 L 16.1045,13.2029 L 15.9797,13.0197 L 15.8649,12.8641
 L 15.8367,12.8412 L 16.5024,11.9735 L 16.5319,11.9949 L 16.7119,12.0655 L 16.9212,12.1386 L 17.1601,12.2121
 L 17.4291,12.2839 L 17.7282,12.3517 L 18.0575,12.4134 L 18.4169,12.4668 L 18.8062,12.5098 L 19.2252,12.54
 L 19.6733,12.5553 L 20.15,12.5536 L 20.6546,12.5328 L 21.181,11.621 L 20.9468,11.1736 L 20.7099,10.7599
 L 20.4725,10.3795 L 20.2369,10.0318 L 20.0051,9.71606 L 19.7791,9.4315 L 19.561,9.17717 L 19.3527,8.95207
 L 19.1561,8.75504 L 18.9729,8.58484 L 18.805,8.44017 L 18.6538,8.3196 L 18.6206,8.30478 L 19.0391,7.29437
 L 19.0731,7.30739 L 19.2652,7.32901 L 19.4863,7.34547 L 19.7361,7.35464 L 20.0145,7.35435 L 20.321,7.34245
 L 20.655,7.31683 L 21.016,7.27541 L 21.4032,7.21608 L 21.8157,7.13683 L 22.2525,7.03569 L 22.7125,6.91069
 L 23.1946,6.75996 L 23.4671,5.74298 L 23.125,5.37141 L 22.7891,5.03314 L 22.4613,4.72714 L 22.1437,4.45227
 L 21.8381,4.20731 L 21.5462,3.99092 L 21.2697,3.80171 L 21.0102,3.63818 L 20.7693,3.49875 L 20.5484,3.38176
 L 20.3487,3.28549 L 20.1715,3.20815 L 20.1355,3.20244 L 20.2783,2.11813 L 20.3145,2.12192 L 20.5057,2.09308
 L 20.7235,2.05177 L 20.9672,1.99596 L 21.236,1.92363 L 21.5289,1.83282 L 21.845,1.72162 L 22.1829,1.58817
 L 22.5415,1.43065 L 22.9195,1.24734 L 23.3152,1.03659 L 23.7272,0.796783 L 24.1538,0.526428 L 24.1538,-0.526428
 L 23.7272,-0.796783 L 23.3152,-1.03659 L 22.9195,-1.24734 L 22.5415,-1.43065 L 22.1829,-1.58817 L 21.845,-1.72162
 L 21.5289,-1.83282 L 21.236,-1.92363 L 20.9672,-1.99596 L 20.7235,-2.05177 L 20.5057,-2.09308 L 20.3145,-2.12192
 L 20.2783,-2.11813 L 20.1355,-3.20244 L 20.1715,-3.20815 L 20.3487,-3.28549 L 20.5484,-3.38176 L 20.7693,-3.49875
 L 21.0102,-3.63818 L 21.2697,-3.80171 L 21.5462,-3.99092 L 21.8381,-4.20731 L 22.1437,-4.45227 L 22.4613,-4.72714
 L 22.7891,-5.03314 L 23.125,-5.37141 L 23.4671,-5.74298 L 23.1946,-6.75996 L 22.7125,-6.91069 L 22.2525,-7.03569
 L 21.8157,-7.13683 L 21.4032,-7.21608 L 21.016,-7.27541 L 20.655,-7.31683 L 20.321,-7.34245 L 20.0145,-7.35435
 L 19.7361,-7.35464 L 19.4863,-7.34547 L 19.2652,-7.32901 L 19.0731,-7.30739 L 19.0391,-7.29437 L 18.6206,-8.30478
 L 18.6538,-8.3196 L 18.805,-8.44017 L 18.9729,-8.58484 L 19.1561,-8.75504 L 19.3527,-8.95207 L 19.561,-9.17717
 L 19.7791,-9.4315 L 20.0051,-9.71606 L 20.2369,-10.0318 L 20.4725,-10.3795 L 20.7099,-10.7599 L 20.9468,-11.1736
 L 21.181,-11.621 L 20.6546,-12.5328 L 20.15,-12.5536 L 19.6733,-12.5553 L 19.2252,-12.54 L 18.8062,-12.5098
 L 18.4169,-12.4668 L 18.0575,-12.4134 L 17.7282,-12.3517 L 17.4291,-12.2839 L 17.1601,-12.2121 L 16.9212,-12.1386
 L 16.7119,-12.0655 L 16.5319,-11.9949 L 16.5024,-11.9735 L 15.8367,-12.8412 L 15.8649,-12.8641 L 15.9797,-13.0197
 L 16.1045,-13.2029 L 16.2374,-13.4147 L 16.3763,-13.6559 L 16.5192,-13.9272 L 16.6641,-14.2293 L 16.8087,-14.5627
 L 16.9509,-14.9277 L 17.0885,-15.3245 L 17.2193,-15.7534 L 17.3411,-16.2143 L 17.4516,-16.7071 L 16.7071,-17.4516
 L 16.2143,-17.3411 L 15.7534,-17.2193 L 15.3245,-17.0885 L 14.9277,-16.9509 L 14.5627,-16.8087 L 14.2293,-16.6641
 L 13.9272,-16.5192 L 13.6559,-16.3763 L 13.4147,-16.2374 L 13.2029,-16.1045 L 13.0197,-15.9797 L 12.8641,-15.8649
 L 12.8412,-15.8367 L 11.9735,-16.5024 L 11.9949,-16.5319 L 12.0655,-16.7119 L 12.1386,-16.9212 L 12.2121,-17.1601
 L 12.2839,-17.4291 L 12.3517,-17.7282 L 12.4134,-18.0575 L 12.4668,-18.4169 L 12.5098,-18.8062 L 12.54,-19.2252
 L 12.5553,-19.6733 L 12.5536,-20.15 L 12.5328,-20.6546 L 11.621,-21.181 L 11.1736,-20.9468 L 10.7599,-20.7099
 L 10.3795,-20.4725 L 10.0318,-20.2369 L 9.71606,-20.0051 L 9.4315,-19.7791 L 9.17717,-19.561 L 8.95207,-19.3527
 L 8.75504,-19.1561 L 8.58484,-18.9729 L 8.44017,-18.805 L 8.3196,-18.6538 L 8.30478,-18.6206 L 7.29437,-19.0391
 L 7.30739,-19.0731 L 7.32901,-19.2652 L 7.34547,-19.4863 L 7.35464,-19.7361 L 7.35435,-20.0145 L 7.34245,-20.321
 L 7.31683,-20.655 L 7.27541,-21.016 L 7.21608,-21.4032 L 7.13683,-21.8157 L 7.03569,-22.2525 L 6.91069,-22.7125
 L 6.75996,-23.1946 L 5.74298,-23.4671 L 5.37141,-23.125 L 5.03314,-22.7891 L 4.72714,-22.4613 L 4.45227,-22.1437
 L 4.20731,-21.8381 L 3.99092,-21.5462 L 3.80171,-21.2697 L 3.63818,-21.0102 L 3.49875,-20.7693 L 3.38176,-20.5484
 L 3.28549,-20.3487 L 3.20815,-20.1715 L 3.20244,-20.1355 L 2.11813,-20.2783 L 2.12192,-20.3145 L 2.09308,-20.5057
 L 2.05177,-20.7235 L 1.99596,-20.9672 L 1.92363,-21.236 L 1.83282,-21.5289 L 1.72162,-21.845 L 1.58817,-22.1829
 L 1.43065,-22.5415 L 1.24734,-22.9195 L 1.03659,-23.3152 L 0.796783,-23.7272 L 0.526428,-24.1538 L -0.526428,-24.1538
 L -0.796783,-23.7272 L -1.03659,-23.3152 L -1.24734,-22.9195 L -1.43065,-22.5415 L -1.58817,-22.1829 L -1.72162,-21.845
 L -1.83282,-21.5289 L -1.92363,-21.236 L -1.99596,-20.9672 L -2.05177,-20.7235 L -2.09308,-20.5057 L -2.12192,-20.3145
 L -2.11813,-20.2783 L -3.20244,-20.1355 L -3.20815,-20.1715 L -3.28549,-20.3487 L -3.38176,-20.5484 L -3.49875,-20.7693
 L -3.63818,-21.0102 L -3.80171,-21.2697 L -3.99092,-21.5462 L -4.20731,-21.8381 L -4.45227,-22.1437 L -4.72714,-22.4613
 L -5.03314,-22.7891 L -5.37141,-23.125 L -5.74298,-23.4671 L -6.75996,-23.1946 L -6.91069,-22.7125 L -7.03569,-22.2525
 L -7.13683,-21.8157 L -7.21608,-21.4032 L -7.27541,-21.016 L -7.31683,-20.655 L -7.34245,-20.321 L -7.35435,-20.0145
 L -7.35464,-19.7361 L -7.34547,-19.4863 L -7.32901,-19.2652 L -7.30739,-19.0731 L -7.29437,-19.0391 L -8.30478,-18.6206
 L -8.3196,-18.6538 L -8.44017,-18.805 L -8.58484,-18.9729 L -8.75504,-19.1561 L -8.95207,-19.3527 L -9.17717,-19.561
 L -9.4315,-19.7791 L -9.71606,-20.0051 L -10.0318,-20.2369 L -10.3795,-20.4725 L -10.7599,-20.7099 L -11.1736,-20.9468
 L -11.621,-21.181 L -12.5328,-20.6546 L -12.5536,-20.15 L -12.5553,-19.6733 L -12.54,-19.2252 L -12.5098,-18.8062
 L -12.4668,-18.4169 L -12.4134,-18.0575 L -12.3517,-17.7282 L -12.2839,-17.4291 L -12.2121,-17.1601 L -12.1386,-16.9212
 L -12.0655,-16.7119 L -11.9949,-16.5319 L -11.9735,-16.5024 L -12.8412,-15.8367 L -12.8641,-15.8649 L -13.0197,-15.9797
 L -13.2029,-16.1045 L -13.4147,-16.2374 L -13.6559,-16.3763 L -13.9272,-16.5192 L -14.2293,-16.6641 L -14.5627,-16.8087
 L -14.9277,-16.9509 L -15.3245,-17.0885 L -15.7534,-17.2193 L -16.2143,-17.3411 L -16.7071,-17.4516 L -17.4516,-16.7071
 L -17.3411,-16.2143 L -17.2193,-15.7534 L -17.0885,-15.3245 L -16.9509,-14.9277 L -16.8087,-14.5627 L -16.6641,-14.2293
 L -16.5192,-13.9272 L -16.3763,-13.6559 L -16.2374,-13.4147 L -16.1045,-13.2029 L -15.9797,-13.0197 L -15.8649,-12.8641
 L -15.8367,-12.8412 L -16.5024,-11.9735 L -16.5319,-11.9949 L -16.7119,-12.0655 L -16.9212,-12.1386 L -17.1601,-12.2121
 L -17.4291,-12.2839 L -17.7282,-12.3517 L -18.0575,-12.4134 L -18.4169,-12.4668 L -18.8062,-12.5098 L -19.2252,-12.54
 L -19.6733,-12.5553 L -20.15,-12.5536 L -20.6546,-12.5328 L -21.181,-11.621 L -20.9468,-11.1736 L -20.7099,-10.7599
 L -20.4725,-10.3795 L -20.2369,-10.0318 L -20.0051,-9.71606 L -19.7791,-9.4315 L -19.561,-9.17717 L -19.3527,-8.95207
 L -19.1561,-8.75504 L -18.9729,-8.58484 L -18.805,-8.44017 L -18.6538,-8.3196 L -18.6206,-8.30478 L -19.0391,-7.29437
 L -19.0731,-7.30739 L -19.2652,-7.32901 L -19.4863,-7.34547 L -19.7361,-7.35464 L -20.0145,-7.35435 L -20.321,-7.34245
 L -20.655,-7.31683 L -21.016,-7.27541 L -21.4032,-7.21608 L -21.8157,-7.13683 L -22.2525,-7.03569 L -22.7125,-6.91069
 L -23.1946,-6.75996 L -23.4671,-5.74298 L -23.125,-5.37141 L -22.7891,-5.03314 L -22.4613,-4.72714 L -22.1437,-4.45227
 L -21.8381,-4.20731 L -21.5462,-3.99092 L -21.2697,-3.80171 L -21.0102,-3.63818 L -20.7693,-3.49875 L -20.5484,-3.38176
 L -20.3487,-3.28549 L -20.1715,-3.20815 L -20.1355,-3.20244 L -20.2783,-2.11813 L -20.3145,-2.12192 L -20.5057,-2.09308
 L -20.7235,-2.05177 L -20.9672,-1.99596 L -21.236,-1.92363 L -21.5289,-1.83282 L -21.845,-1.72162 L -22.1829,-1.58817
 L -22.5415,-1.43065 L -22.9195,-1.24734 L -23.3152,-1.03659 L -23.7272,-0.796783 L -24.1538,-0.526428 L -24.1538,0.526428
 L -23.7272,0.796783 L -23.3152,1.03659 L -22.9195,1.24734 L -22.5415,1.43065 L -22.1829,1.58817 L -21.845,1.72162
 L -21.5289,1.83282 L -21.236,1.92363 L -20.9672,1.99596 L -20.7235,2.05177 L -20.5057,2.09308 L -20.3145,2.12192
 L -20.2783,2.11813 L -20.1355,3.20244 L -20.1715,3.20815 L -20.3487,3.28549 L -20.5484,3.38176 L -20.7693,3.49875
 L -21.0102,3.63818 L -21.2697,3.80171 L -21.5462,3.99092 L -21.8381,4.20731 L -22.1437,4.45227 L -22.4613,4.72714
 L -22.7891,5.03314 L -23.125,5.37141 L -23.4671,5.74298 L -23.1946,6.75996 L -22.7125,6.91069 L -22.2525,7.03569
 L -21.8157,7.13683 L -21.4032,7.21608 L -21.016,7.27541 L -20.655,7.31683 L -20.321,7.34245 L -20.0145,7.35435
 L -19.7361,7.35464 L -19.4863,7.34547 L -19.2652,7.32901 L -19.0731,7.30739 L -19.0391,7.29437 L -18.6206,8.30478
 L -18.6538,8.3196 L -18.805,8.44017 L -18.9729,8.58484 L -19.1561,8.75504 L -19.3527,8.95207 L -19.561,9.17717
 L -19.7791,9.4315 L -20.0051,9.71606 L -20.2369,10.0318 L -20.4725,10.3795 L -20.7099,10.7599 L -20.9468,11.1736
 L -21.181,11.621 L -20.6546,12.5328 L -20.15,12.5536 L -19.6733,12.5553 L -19.2252,12.54 L -18.8062,12.5098
 L -18.4169,12.4668 L -18.0575,12.4134 L -17.7282,12.3517 L -17.4291,12.2839 L -17.1601,12.2121 L -16.9212,12.1386
 L -16.7119,12.0655 L -16.5319,11.9949 L -16.5024,11.9735 L -15.8367,12.8412 L -15.8649,12.8641 L -15.9797,13.0197
 L -16.1045,13.2029 L -16.2374,13.4147 L -16.3763,13.6559 L -16.5192,13.9272 L -16.6641,14.2293 L -16.8087,14.5627
 L -16.9509,14.9277 L -17.0885,15.3245 L -17.2193,15.7534 L -17.3411,16.2143 L -17.4516,16.7071 L -16.7071,17.4516
 L -16.2143,17.3411 L -15.7534,17.2193 L -15.3245,17.0885 L -14.9277,16.9509 L -14.5627,16.8087 L -14.2293,16.6641
 L -13.9272,16.5192 L -13.6559,16.3763 L -13.4147,16.2374 L -13.2029,16.1045 L -13.0197,15.9797 L -12.8641,15.8649
 L -12.8412,15.8367 L -11.9735,16.5024 L -11.9949,16.5319 L -12.0655,16.7119 L -12.1386,16.9212 L -12.2121,17.1601
 L -12.2839,17.4291 L -12.3517,17.7282 L -12.4134,18.0575 L -12.4668,18.4169 L -12.5098,18.8062 L -12.54,19.2252
 L -12.5553,19.6733 L -12.5536,20.15 L -12.5328,20.6546 L -11.621,21.181 L -11.1736,20.9468 L -10.7599,20.7099
 L -10.3795,20.4725 L -10.0318,20.2369 L -9.71606,20.0051 L -9.4315,19.7791 L -9.17717,19.561 L -8.95207,19.3527
 L -8.75504,19.1561 L -8.58484,18.9729 L -8.44017,18.805 L -8.3196,18.6538 L -8.30478,18.6206 L -7.29437,19.0391
 L -7.30739,19.0731 L -7.32901,19.2652 L -7.34547,19.4863 L -7.35464,19.7361 L -7.35435,20.0145 L -7.34245,20.321
 L -7.31683,20.655 L -7.27541,21.016 L -7.21608,21.4032 L -7.13683,21.8157 L -7.03569,22.2525 L -6.91069,22.7125
 L -6.75996,23.1946 L -5.74298,23.4671 L -5.37141,23.125 L -5.03314,22.7891 L -4.72714,22.4613 L -4.45227,22.1437
 L -4.20731,21.8381 L -3.99092,21.5462 L -3.80171,21.2697 L -3.63818,21.0102 L -3.49875,20.7693 L -3.38176,20.5484
 L -3.28549,20.3487 L -3.20815,20.1715 L -3.20244,20.1355 L -2.11813,20.2783 L -2.12192,20.3145 L -2.09308,20.5057
 L -2.05177,20.7235 L -1.99596,20.9672 L -1.92363,21.236 L -1.83282,21.5289 L -1.72162,21.845 L -1.58817,22.1829
 L -1.43065,22.5415 L -1.24734,22.9195 L -1.03659,23.3152 L -0.796783,23.7272 L -0.526428,24.1538 L 0.526428,24.1538
 z
" stroke="black" fill="lightgray" stroke-width="0.5"/>
</svg>
