<?xml version="1.0" standalone="no"?>
<!DOCTYPE svg PUBLIC "-//W3C//DTD SVG 1.1//EN" "http://www.w3.org/Graphics/SVG/1.1/DTD/svg11.dtd">
<svg width="14mm" height="14mm" viewBox="-7 -7 14 14" xmlns="http://www.w3.org/2000/svg" version="1.1">
<title>OpenSCAD Model</title>
<path d="
M 0.861206,6.05121 L 0.956146,6.03694 L 1.05086,6.02118 L 1.06503,6.01859 L 1.16026,5.94861 L 1.18503,5.84245
 L 1.17293,5.73294 L 1.17435,5.62244 L 1.18906,5.51178 L 1.21681,5.40184 L 1.28743,5.27672 L 1.38411,5.17133
 L 1.50154,5.08823 L 1.63431,5.02991 L 1.776,4.99904 L 1.91985,4.99725 L 2.06001,5.0257 L 2.19069,5.0854
 L 2.2776,5.1581 L 2.35457,5.23897 L 2.42076,5.32748 L 2.4754,5.42319 L 2.55769,5.49455 L 2.67599,5.49515
 L 2.68898,5.48891 L 2.77487,5.446 L 2.86008,5.40175 L 2.87276,5.3949 L 2.9417,5.29892 L 2.93243,5.19031
 L 2.88708,5.08989 L 2.85431,4.98436 L 2.83411,4.87457 L 2.82651,4.76144 L 2.85503,4.62062 L 2.9144,4.49051
 L 3.0004,4.37518 L 3.10864,4.27869 L 3.23387,4.20555 L 3.37012,4.15941 L 3.51222,4.14314 L 3.65495,4.15955
 L 3.76007,4.20183 L 3.85825,4.25496 L 3.94856,4.31868 L 4.03011,4.39281 L 4.13042,4.43526 L 4.24312,4.39926
 L 4.25356,4.38933 L 4.32198,4.32198 L 4.38933,4.25356 L 4.39926,4.24312 L 4.43518,4.13054 L 4.39281,4.03011
 L 4.31865,3.94861 L 4.25487,3.85838 L 4.20172,3.76021 L 4.15955,3.65495 L 4.14314,3.51222 L 4.15941,3.37012
 L 4.20555,3.23387 L 4.27869,3.10864 L 4.37518,3.0004 L 4.49051,2.9144 L 4.62062,2.85503 L 4.76144,2.82651
 L 4.87448,2.83424 L 4.98427,2.85443 L 5.08986,2.88713 L 5.19031,2.93243 L 5.29884,2.9418 L 5.3949,2.87276
 L 5.40175,2.86008 L 5.446,2.77487 L 5.48891,2.68898 L 5.49515,2.67599 L 5.49451,2.55782 L 5.42319,2.4754
 L 5.32747,2.42081 L 5.23892,2.35471 L 5.15805,2.27777 L 5.0854,2.19069 L 5.0257,2.06001 L 4.99725,1.91985
 L 4.99904,1.776 L 5.02991,1.63431 L 5.08823,1.50154 L 5.17133,1.38411 L 5.27672,1.28743 L 5.40184,1.21681
 L 5.51173,1.18922 L 5.62239,1.1745 L 5.73293,1.17297 L 5.84245,1.18503 L 5.94856,1.1604 L 6.01859,1.06503
 L 6.02118,1.05086 L 6.03694,0.956146 L 6.05121,0.861206 L 6.05313,0.846924 L 6.01601,0.734741 L 5.9227,0.678375
 L 5.8148,0.656052 L 5.71016,0.620544 L 5.60947,0.572357 L 5.51347,0.511993 L 5.41631,0.406158 L 5.34595,0.281647
 L 5.30319,0.144287 L 5.28876,-0 L 5.30319,-0.144287 L 5.34595,-0.281647 L 5.41631,-0.406158 L 5.51347,-0.511993
 L 5.60947,-0.572189 L 5.71016,-0.620392 L 5.8148,-0.655991 L 5.9227,-0.678375 L 6.01601,-0.734589 L 6.05313,-0.846924
 L 6.05121,-0.861206 L 6.03694,-0.956146 L 6.02118,-1.05086 L 6.01859,-1.06503 L 5.94861,-1.16026 L 5.84245,-1.18503
 L 5.73294,-1.17293 L 5.62244,-1.17435 L 5.51178,-1.18906 L 5.40184,-1.21681 L 5.27672,-1.28743 L 5.17133,-1.38411
 L 5.08823,-1.50154 L 5.02991,-1.63431 L 4.99904,-1.776 L 4.99725,-1.91985 L 5.0257,-2.06001 L 5.0854,-2.19069
 L 5.1581,-2.2776 L 5.23897,-2.35457 L 5.32748,-2.42076 L 5.42319,-2.4754 L 5.49455,-2.55769 L 5.49515,-2.67599
 L 5.48891,-2.68898 L 5.446,-2.77487 L 5.40175,-2.86008 L 5.3949,-2.87276 L 5.29892,-2.9417 L 5.19031,-2.93243
 L 5.08989,-2.88708 L 4.98436,-2.85431 L 4.87457,-2.83411 L 4.76144,-2.82651 L 4.62062,-2.85503 L 4.49051,-2.9144
 L 4.37518,-3.0004 L 4.27869,-3.10864 L 4.20555,-3.23387 L 4.15941,-3.37012 L 4.14314,-3.51222 L 4.15955,-3.65495
 L 4.20183,-3.76007 L 4.25496,-3.85825 L 4.31868,-3.94856 L 4.39281,-4.03011 L 4.43526,-4.13042 L 4.39926,-4.24312
 L 4.38933,-4.25356 L 4.32198,-4.32198 L 4.25356,-4.38933 L 4.24312,-4.39926 L 4.13054,-4.43518 L 4.03011,-4.39281
 L 3.94861,-4.31865 L 3.85838,-4.25487 L 3.76021,-4.20172 L 3.65495,-4.15955 L 3.51222,-4.14314 L 3.37012,-4.15941
 L 3.23387,-4.20555 L 3.10864,-4.27869 L 3.0004,-4.37518 L 2.9144,-4.49051 L 2.85503,-4.62062 L 2.82651,-4.76144
 L 2.83424,-4.87448 L 2.85443,-4.98427 L 2.88713,-5.08986 L 2.93243,-5.19031 L 2.9418,-5.29884 L 2.87276,-5.3949
 L 2.86008,-5.40175 L 2.77487,-5.446 L 2.68898,-5.48891 L 2.67599,-5.49515 L 2.55782,-5.49451 L 2.4754,-5.42319
 L 2.42081,-5.32747 L 2.35471,-5.23892 L 2.27777,-5.15805 L 2.19069,-5.0854 L 2.06001,-5.0257 L 1.91985,-4.99725
 L 1.776,-4.99904 L 1.63431,-5.02991 L 1.50154,-5.08823 L 1.38411,-5.17133 L 1.28743,-5.27672 L 1.21681,-5.40184
 L 1.18922,-5.51173 L 1.1745,-5.62239 L 1.17297,-5.73293 L 1.18503,-5.84245 L 1.1604,-5.94856 L 1.06503,-6.01859
 L 1.05086,-6.02118 L 0.956146,-6.03694 L 0.861206,-6.05121 L 0.846924,-6.05313 L 0.734741,-6.01601 L 0.678375,-5.9227
 L 0.656052,-5.8148 L 0.620544,-5.71016 L 0.572357,-5.60947 L 0.511993,-5.51347 L 0.406158,-5.41631 L 0.281647,-5.34595
 L 0.144287,-5.30319 L 0,-5.28876 L -0.144287,-5.30319 L -0.281647,-5.34595 L -0.406158,-5.41631 L -0.511993,-5.51347
 L -0.572189,-5.60947 L -0.620392,-5.71016 L -0.655991,-5.8148 L -0.678375,-5.9227 L -0.734589,-6.01601 L -0.846924,-6.05313
 L -0.861206,-6.05121 L -0.956146,-6.03694 L -1.05086,-6.02118 L -1.06503,-6.01859 L -1.16026,-5.94861 L -1.18503,-5.84245
 L -1.17293,-5.73294 L -1.17435,-5.62244 L -1.18906,-5.51178 L -1.21681,-5.40184 L -1.28743,-5.27672 L -1.38411,-5.17133
 L -1.50154,-5.08823 L -1.63431,-5.02991 L -1.776,-4.99904 L -1.91985,-4.99725 L -2.06001,-5.0257 L -2.19069,-5.0854
 L -2.2776,-5.1581 L -2.35457,-5.23897 L -2.42076,-5.32748 L -2.4754,-5.42319 L -2.55769,-5.49455 L -2.67599,-5.49515
 L -2.68898,-5.48891 L -2.77487,-5.446 L -2.86008,-5.40175 L -2.87276,-5.3949 L -2.9417,-5.29892 L -2.93243,-5.19031
 L -2.88708,-5.08989 L -2.85431,-4.98436 L -2.83411,-4.87457 L -2.82651,-4.76144 L -2.85503,-4.62062 L -2.9144,-4.49051
 L -3.0004,-4.37518 L -3.10864,-4.27869 L -3.23387,-4.20555 L -3.37012,-4.15941 L -3.51222,-4.14314 L -3.65495,-4.15955
 L -3.76007,-4.20183 L -3.85825,-4.25496 L -3.94856,-4.31868 L -4.03011,-4.39281 L -4.13042,-4.43526 L -4.24312,-4.39926
 L -4.25356,-4.38933 L -4.32198,-4.32198 L -4.38933,-4.25356 L -4.39926,-4.24312 L -4.43518,-4.13054 L -4.39281,-4.03011
 L -4.31865,-3.94861 L -4.25487,-3.85838 L -4.20172,-3.76021 L -4.15955,-3.65495 L -4.14314,-3.51222 L -4.15941,-3.37012
 L -4.20555,-3.23387 L -4.27869,-3.10864 L -4.37518,-3.0004 L -4.49051,-2.9144 L -4.62062,-2.85503 L -4.76144,-2.82651
 L -4.87448,-2.83424 L -4.98427,-2.85443 L -5.08986,-2.88713 L -5.19031,-2.93243 L -5.29884,-2.9418 L -5.3949,-2.87276
 L -5.40175,-2.86008 L -5.446,-2.77487 L -5.48891,-2.68898 L -5.49515,-2.67599 L -5.49451,-2.55782 L -5.42319,-2.4754
 L -5.32747,-2.42081 L -5.23892,-2.35471 L -5.15805,-2.27777 L -5.0854,-2.19069 L -5.0257,-2.06001 L -4.99725,-1.91985
 L -4.99904,-1.776 L -5.02991,-1.63431 L -5.08823,-1.50154 L -5.17133,-1.38411 L -5.27672,-1.28743 L -5.40184,-1.21681
 L -5.51173,-1.18922 L -5.62239,-1.1745 L -5.73293,-1.17297 L -5.84245,-1.18503 L -5.94856,-1.1604 L -6.01859,-1.06503
 L -6.02118,-1.05086 L -6.03694,-0.956146 L -6.05121,-0.861206 L -6.05313,-0.846924 L -6.01601,-0.734741 L -5.9227,-0.678375
 L -5.8148,-0.656052 L -5.71016,-0.620544 L -5.60947,-0.572357 L -5.51347,-0.511993 L -5.41631,-0.406158 L -5.34595,-0.281647
 L -5.30319,-0.144287 L -5.28876,-0 L -5.30319,0.144287 L -5.34595,0.281647 L -5.41631,0.406158 L -5.51347,0.511993
 L -5.60947,0.572189 L -5.71016,0.620392 L -5.8148,0.655991 L -5.9227,0.678375 L -6.01601,0.734589 L -6.05313,0.846924
 L -6.05121,0.861206 L -6.03694,0.956146 L -6.02118,1.05086 L -6.01859,1.06503 L -5.94861,1.16026 L -5.84245,1.18503
 L -5.73294,1.17293 L -5.62244,1.17435 L -5.51178,1.18906 L -5.40184,1.21681 L -5.27672,1.28743 L -5.17133,1.38411
 L -5.08823,1.50154 L -5.02991,1.63431 L -4.99904,1.776 L -4.99725,1.91985 L -5.0257,2.06001 L -5.0854,2.19069
 L -5.1581,2.2776 L -5.23897,2.35457 L -5.32748,2.42076 L -5.42319,2.4754 L -5.49455,2.55769 L -5.49515,2.67599
 L -5.48891,2.68898 L -5.446,2.77487 L -5.40175,2.86008 L -5.3949,2.87276 L -5.29892,2.9417 L -5.19031,2.93243
 L -5.08989,2.88708 L -4.98436,2.85431 L -4.87457,2.83411 L -4.76144,2.82651 L -4.62062,2.85503 L -4.49051,2.9144
 L -4.37518,3.0004 L -4.27869,3.10864 L -4.20555,3.23387 L -4.15941,3.37012 L -4.14314,3.51222 L -4.15955,3.65495
 L -4.20183,3.76007 L -4.25496,3.85825 L -4.31868,3.94856 L -4.39281,4.03011 L -4.43526,4.13042 L -4.39926,4.24312
 L -4.38933,4.25356 L -4.32198,4.32198 L -4.25356,4.38933 L -4.24312,4.39926 L -4.13054,4.43518 L -4.03011,4.39281
 L -3.94861,4.31865 L -3.85838,4.25487 L -3.76021,4.20172 L -3.65495,4.15955 L -3.51222,4.14314 L -3.37012,4.15941
 L -3.23387,4.20555 L -3.10864,4.27869 L -3.0004,4.37518 L -2.9144,4.49051 L -2.85503,4.62062 L -2.82651,4.76144
 L -2.83424,4.87448 L -2.85443,4.98427 L -2.88713,5.08986 L -2.93243,5.19031 L -2.9418,5.29884 L -2.87276,5.3949
 L -2.86008,5.40175 L -2.77487,5.446 L -2.68898,5.48891 L -2.67599,5.49515 L -2.55782,5.49451 L -2.4754,5.42319
 L -2.42081,5.32747 L -2.35471,5.23892 L -2.27777,5.15805 L -2.19069,5.0854 L -2.06001,5.0257 L -1.91985,4.99725
 L -1.776,4.99904 L -1.63431,5.02991 L -1.50154,5.08823 L -1.38411,5.17133 L -1.28743,5.27672 L -1.21681,5.40184
 L -1.18922,5.51173 L -1.1745,5.62239 L -1.17297,5.73293 L -1.18503,5.84245 L -1.1604,5.94856 L -1.06503,6.01859
 L -1.05086,6.02118 L -0.956146,6.03694 L -0.861206,6.05121 L -0.846924,6.05313 L -0.734741,6.01601 L -0.678375,5.9227
 L -0.656052,5.8148 L -0.620544,5.71016 L -0.572357,5.60947 L -0.511993,5.51347 L -0.406158,5.41631 L -0.281647,5.34595
 L -0.144287,5.30319 L 0,5.28876 L 0.144287,5.30319 L 0.281647,5.34595 L 0.406158,5.41631 L 0.511993,5.51347
 L 0.572189,5.60947 L 0.620392,5.71016 L 0.655991,5.8148 L 0.678375,5.9227 L 0.734589,6.01601 L 0.846924,6.05313
 z
M -0.0999908,-0 L 0,-0.0999908 L 0.0999908,-0 L 0,0.0999908 z
" stroke="black" fill="lightgray" stroke-width="0.5"/>
</svg>
